<svg id="Layer_1" data-name="Layer 1" xmlns="http://www.w3.org/2000/svg" width="214.03" height="16.25" viewBox="0 0 214.03 16.25"><defs><style>.cls-1{fill:#f08200;}.cls-2{fill:#666;}.cls-3{fill:#c8c8c8;}.cls-4{fill:#fff;}</style></defs><title>checkboxs_and_radiobuttons</title><path id="check-box" class="cls-1" d="M32,16H20a2,2,0,0,1-2-2V2a2,2,0,0,1,2-2H32a2,2,0,0,1,2,2V14A2,2,0,0,1,32,16ZM32,3a1,1,0,0,0-1-1H21a1,1,0,0,0-1,1V13a1,1,0,0,0,1,1H31a1,1,0,0,0,1-1Z"/><path id="check-box_copy" data-name="check-box copy" class="cls-2" d="M14,16H2a2,2,0,0,1-2-2V2A2,2,0,0,1,2,0H14a2,2,0,0,1,2,2V14A2,2,0,0,1,14,16ZM14,3a1,1,0,0,0-1-1H3A1,1,0,0,0,2,3V13a1,1,0,0,0,1,1H13a1,1,0,0,0,1-1Z"/><path id="check-box_copy_2" data-name="check-box copy 2" class="cls-1" d="M50,16H38a2,2,0,0,1-2-2V2a2,2,0,0,1,2-2H50a2,2,0,0,1,2,2V14A2,2,0,0,1,50,16ZM50,3a1,1,0,0,0-1-1H39a1,1,0,0,0-1,1V13a1,1,0,0,0,1,1H49a1,1,0,0,0,1-1Zm-5.85,8.6a1,1,0,0,1-1.42,0L39.9,8.77a1,1,0,0,1,0-1.42,1,1,0,0,1,1.41,0l0,0,2.13,2.12,4.24-4.24a1,1,0,0,1,1.42,0,1,1,0,0,1,0,1.41Z"/><path id="check-box_copy_3" data-name="check-box copy 3" class="cls-3" d="M68,16H56a2,2,0,0,1-2-2V2a2,2,0,0,1,2-2H68a2,2,0,0,1,2,2V14A2,2,0,0,1,68,16ZM68,3a1,1,0,0,0-1-1H57a1,1,0,0,0-1,1V13a1,1,0,0,0,1,1H67a1,1,0,0,0,1-1Z"/><path id="check-box_copy_3-2" data-name="check-box copy 3-2" class="cls-3" d="M86,16H74a2,2,0,0,1-2-2V2a2,2,0,0,1,2-2H86a2,2,0,0,1,2,2V14A2,2,0,0,1,86,16ZM86,3a1,1,0,0,0-1-1H75a1,1,0,0,0-1,1V13a1,1,0,0,0,1,1H85a1,1,0,0,0,1-1Zm-5.85,8.6a1,1,0,0,1-1.42,0L75.9,8.77a1,1,0,0,1,0-1.42,1,1,0,0,1,1.41,0l0,0,2.13,2.12,4.24-4.24a1,1,0,0,1,1.42,0,1,1,0,0,1,0,1.41Z"/><path id="radio_copy_8" data-name="radio copy 8" class="cls-2" d="M98,16a8,8,0,1,1,8-8h0A8,8,0,0,1,98,16ZM98,2a6,6,0,1,0,6,6A6,6,0,0,0,98,2Z"/><path id="radio_copy_10" data-name="radio copy 10" class="cls-1" d="M134,16a8,8,0,1,1,8-8h0A8,8,0,0,1,134,16Zm0-14a6,6,0,1,0,6,6A6,6,0,0,0,134,2Zm0,9a3,3,0,1,1,3-3A3,3,0,0,1,134,11Z"/><path id="radio_copy_9" data-name="radio copy 9" class="cls-1" d="M116,16a8,8,0,1,1,8-8A8,8,0,0,1,116,16Zm0-14a6,6,0,1,0,6,6A6,6,0,0,0,116,2Z"/><path id="radio_copy_11" data-name="radio copy 11" class="cls-3" d="M170,16a8,8,0,1,1,8-8h0A8,8,0,0,1,170,16Zm0-14a6,6,0,1,0,6,6A6,6,0,0,0,170,2Zm0,9a3,3,0,1,1,3-3A3,3,0,0,1,170,11Z"/><path id="radio_copy_11-2" data-name="radio copy 11-2" class="cls-3" d="M152,16a8,8,0,1,1,8-8h0A8,8,0,0,1,152,16Zm0-14a6,6,0,1,0,6,6A6,6,0,0,0,152,2Z"/><path id="check-box_copy_3-2-2" data-name="check-box copy 3" class="cls-4" d="M194,16H182a2,2,0,0,1-2-2V2a2,2,0,0,1,2-2h12a2,2,0,0,1,2,2V14A2,2,0,0,1,194,16Zm0-13a1,1,0,0,0-1-1H183a1,1,0,0,0-1,1V13a1,1,0,0,0,1,1h10a1,1,0,0,0,1-1Z"/><path id="check-box_copy_3-2-3" data-name="check-box copy 3-2" class="cls-4" d="M212,16H200a2,2,0,0,1-2-2V2a2,2,0,0,1,2-2h12a2,2,0,0,1,2,2V14A2,2,0,0,1,212,16Zm0-13a1,1,0,0,0-1-1H201a1,1,0,0,0-1,1V13a1,1,0,0,0,1,1h10a1,1,0,0,0,1-1Zm-5.85,8.6a1,1,0,0,1-1.42,0L201.9,8.77a1,1,0,0,1,0-1.42,1,1,0,0,1,1.41,0l0,0,2.13,2.12,4.24-4.24a1,1,0,0,1,1.42,0,1,1,0,0,1,0,1.41Z"/></svg>