<svg id="Layer_1" data-name="Layer 1" xmlns="http://www.w3.org/2000/svg" width="311" height="310.33" viewBox="0 0 311 310.33"><defs><style>.cls-1{fill:#fff;}.cls-2,.cls-4{fill:#989898;}.cls-3,.cls-5{fill:#333;}.cls-11,.cls-12,.cls-4,.cls-5,.cls-6,.cls-9{fill-rule:evenodd;}.cls-13,.cls-6{fill:#ee8222;}.cls-7{fill:#f05f5a;}.cls-8{fill:#0f9548;}.cls-10,.cls-9{fill:#666667;}.cls-11{fill:#0b9547;}.cls-12{fill:#f05f59;}.cls-14{fill:#d5d6d5;}</style></defs><title>Landing sprite</title><path class="cls-1" d="M145.45,55.79a.41.41,0,0,0-.44.35v2.6a.46.46,0,0,0,.89,0v-2.6A.41.41,0,0,0,145.45,55.79Zm3.5-3.62h-9.9a2.29,2.29,0,0,0-2.4,2.16v5a2.29,2.29,0,0,0,2.4,2.16H149a2.29,2.29,0,0,0,2.4-2.16v-5A2.29,2.29,0,0,0,149,52.17Zm-10.26,7.66V54.59h-1v-.76h3.27v.78h-1.23v5.22Zm4.7,0h-.82v-.57a1.27,1.27,0,0,1-1.56.5c-.25-.17-.24-.47-.27-.72s0-.46,0-.88V55.38h1v2.81c0,.38,0,.61,0,.68.15.42.52.19.61,0a6.69,6.69,0,0,0,0-.68V55.38h1Zm1.52-.42-.07.37-.84,0v-6h1v1.73c.94-.72,1.64-.19,1.64.7v2.32C146.66,59.7,146,60.34,144.91,59.4Zm2.37-1.13V56.89a2.86,2.86,0,0,1,.13-1,1,1,0,0,1,.43-.55c.62-.43,1.84-.3,2,.54a9.46,9.46,0,0,1,.05,1.18v.63H148.1v1.07a.4.4,0,0,0,.42.39h.15a.4.4,0,0,0,.42-.39v-.41s0-.07,0-.1h.76C150.21,60.24,147.28,60.57,147.28,58.27Zm-1.35-7.51a.62.62,0,0,0,.24.29.71.71,0,0,0,.42.11.64.64,0,0,0,.39-.11.92.92,0,0,0,.29-.35l0,.38h1.14V46.47h-.9v3.59a.36.36,0,0,1-.37.35.37.37,0,0,1-.37-.35V46.47h-.94v3.11c0,.4,0,.66,0,.79A1.32,1.32,0,0,0,145.93,50.76Zm-3.46-2.61v1.22a4.1,4.1,0,0,0,.07.91,1.29,1.29,0,0,0,.21.52.91.91,0,0,0,.42.32,1.82,1.82,0,0,0,.66.11,1.38,1.38,0,0,0,.62-.13,1.07,1.07,0,0,0,.44-.38,1.49,1.49,0,0,0,.22-.56,5.38,5.38,0,0,0,.06-.95V48.05a3.55,3.55,0,0,0-.06-.76,1.67,1.67,0,0,0-.21-.48,1.18,1.18,0,0,0-.44-.38,1.55,1.55,0,0,0-.68-.14,1.25,1.25,0,0,0-.77.22,1.22,1.22,0,0,0-.42.6,3.57,3.57,0,0,0-.12,1Zm.9-.62a.45.45,0,1,1,.9,0V50a.45.45,0,1,1-.9,0Zm5.73,8.87a.45.45,0,0,0-.46-.43h-.06a.45.45,0,0,0-.46.43v.54h1Zm-8.89-5.17h1.08V47.69l1.27-3h-1.18l-.67,2.26L140,44.65h-1.16l1.35,3Z"/><path class="cls-1" d="M182.15,49.12a5.06,5.06,0,0,1-1.57.6,2.48,2.48,0,0,0-4.28,1.69,2.6,2.6,0,0,0,.06.56,7,7,0,0,1-5.09-2.58,2.41,2.41,0,0,0-.34,1.24,2.48,2.48,0,0,0,1.1,2.06,2.42,2.42,0,0,1-1.11-.31v0a2.47,2.47,0,0,0,2,2.42,2.82,2.82,0,0,1-.65.08,3.59,3.59,0,0,1-.47,0,2.49,2.49,0,0,0,2.31,1.71,5,5,0,0,1-3.07,1,5.83,5.83,0,0,1-.59,0,7,7,0,0,0,10.82-5.91c0-.11,0-.22,0-.32a5.19,5.19,0,0,0,1.24-1.28,4.81,4.81,0,0,1-1.42.38A2.46,2.46,0,0,0,182.15,49.12Z"/><path class="cls-1" d="M201.45,59.21h2.88V50.9h-2.88Zm1.46-12.32a1.44,1.44,0,1,0,0,2.87h0a1.45,1.45,0,1,0,0-2.87Zm8.49,3.81a2.88,2.88,0,0,0-2.59,1.37v0h0l0,0V50.9h-2.89c0,.78,0,8.31,0,8.31h2.89V54.57a2,2,0,0,1,.09-.68,1.58,1.58,0,0,1,1.48-1c1,0,1.46.76,1.46,1.88v4.45h2.88V54.44C214.72,51.89,213.3,50.7,211.4,50.7Z"/><path class="cls-2" d="M45.3,21.71c-.85,0-3-.21-9.27-.84l-.23-.05c-.65-.22-2.18-.87-2.23-2.08a2,2,0,0,1,.48-1.38L32.28,14a1.5,1.5,0,0,1,.88-2.14l1.23-.37a1.45,1.45,0,0,1,1.2.17L40,14.47l2.21.13.68-.2A38,38,0,0,0,39.27,12a8.55,8.55,0,0,1-1.49-1.05,2.25,2.25,0,0,1-.46-.35.5.5,0,0,1,0-.69c.15-.15,2.33-1.4,2.81-1.69a1.49,1.49,0,0,1,1.32,0c.29.13,8.45,3.48,9.73,3.79l5.17-1.49c3.24-1,5.83-.5,7.08,1.46a2.56,2.56,0,0,1,.32,2.48c-1.2,3.07-8.5,5.09-16.21,6.81-.7.16-1.42.32-1.64.39A1.24,1.24,0,0,1,45.3,21.71Zm-8.95-2.82c3.09.31,7.92.78,8.89.84.28-.09.77-.2,1.83-.44,9.15-2.05,14.13-3.93,14.78-5.59a.59.59,0,0,0-.12-.64c-1-1.65-3.74-1-4.85-.66L51.48,14l-.17,0h-.17c-1.22-.06-9-3.34-10.41-3.93l-.48.18A55.61,55.61,0,0,1,45.77,14s.44.3.85.61.35.72-.11.86l-1.31.39-2.57.75-.16,0-3.08-.18-4.67-3-.4.12,2.4,4.57-1,.43h0A3,3,0,0,0,36.35,18.89ZM35,13.36Zm-.46-.06Z"/><path class="cls-3" d="M45.25,58.73c-.85,0-3-.21-9.27-.84l-.22,0c-.65-.22-2.18-.87-2.23-2.08A2,2,0,0,1,34,54.38L32.23,51a1.48,1.48,0,0,1,0-1.28,1.45,1.45,0,0,1,.93-.85l1.24-.37a1.45,1.45,0,0,1,1.2.16L40,51.48l2.21.13.68-.19A36,36,0,0,0,39.23,49a9.57,9.57,0,0,1-1.5-1,2.1,2.1,0,0,1-.46-.36.49.49,0,0,1,0-.68c.16-.16,2.34-1.4,2.82-1.69a1.46,1.46,0,0,1,1.32,0c.29.12,8.45,3.48,9.72,3.79l5.17-1.5c3.24-1,5.84-.49,7.09,1.47a2.54,2.54,0,0,1,.32,2.47c-1.21,3.08-8.51,5.1-16.21,6.82l-1.65.38A1,1,0,0,1,45.25,58.73Zm-9-2.82c3.09.31,7.93.78,8.89.83.29-.08.78-.2,1.83-.43,9.16-2.05,14.13-3.93,14.79-5.6a.63.63,0,0,0-.13-.64c-1-1.64-3.73-1-4.84-.65L51.44,51l-.17.05H51.1c-1.23-.07-9-3.35-10.42-3.93l-.47.17A58.57,58.57,0,0,1,45.72,51s.45.3.86.61.34.72-.11.85l-1.32.39-2.56.75-.17.05-3.07-.18-4.67-3-.4.12,2.39,4.57-1,.43h0A4.36,4.36,0,0,0,36.3,55.91Zm-1.37-5.53Zm-.46-.06Z"/><path class="cls-4" d="M29.49,18h-.41a.85.85,0,0,1-1-.77V10.93c0-.94-.79-.94-1.25-.94H23.12V7a1.07,1.07,0,0,0-1.18-1h-7.7a1,1,0,0,0-1.12.9V17.35c0,.64-.36.64-.82.64h-.43c-.63,0-.75-.26-.75-1V9A1,1,0,0,0,10,8H6.12V4.82c0-.41-.34-.83-.56-.83H4.88c-.27,0-.76.15-.76,1V8H3c-.67,0-.88.73-.88,1.19V17c0,.62.09,1-.38,1H1.49c-.75,0-.91,1.08-.14,2.9,0,0,2.66,6.23,2.77,6.56A.86.86,0,0,0,5,28H26.28a.94.94,0,0,0,.87-.49c.16-.3,1.71-3.36,3.21-6.13S31,18,29.49,18Zm-6.38-5.64c0-.32.22-.36.4-.36h2.3c.27,0,.31.21.31.44v1.25a.36.36,0,0,1-.4.42H23.49c-.37,0-.4-.21-.4-.5S23.11,12.66,23.11,12.35Zm3,4v1.23c0,.16,0,.41-.36.41H23.6c-.27,0-.48,0-.48-.33V16.35s0-.36.35-.36h2.27A.34.34,0,0,1,26.12,16.35Zm-11-7.92c0-.38.25-.44.54-.44h5s.5,0,.5.4V9.55c0,.21,0,.44-.46.44H15.78c-.41,0-.66,0-.66-.48Zm0,3.94a.35.35,0,0,1,.37-.38h5.27c.25,0,.36.11.36.36v1.16c0,.42-.15.48-.46.48H15.51c-.27,0-.39-.12-.39-.39Zm0,4c0-.32.23-.36.39-.36h5.23a.33.33,0,0,1,.38.36v1.16c0,.32,0,.48-.38.48h-5.1c-.31,0-.52-.08-.52-.33Zm-11,.93V10.43c0-.44.35-.44.54-.44H8.53c.44,0,.59.21.59.65v6.69c0,.67-.29.66-.71.66H4.7C4.08,18,4.12,17.58,4.12,17.28Zm24,3.9c-.69,1.18-1.88,3.19-2.47,4.37a.83.83,0,0,1-.72.44H6.62A.58.58,0,0,1,6,25.64c-.1-.24-1.74-3.93-2.17-5.21-.09-.27,0-.44.29-.44H27.37C28.47,20,28.83,20,28.13,21.18Z"/><path class="cls-5" d="M29.49,54.05h-.41a.85.85,0,0,1-1-.78V47c0-.93-.79-.93-1.25-.93H23.12v-3a1.06,1.06,0,0,0-1.18-1h-7.7a1,1,0,0,0-1.12.89V53.4c0,.65-.36.65-.82.65h-.43c-.63,0-.75-.27-.75-1v-8a1,1,0,0,0-1.13-1H6.12V40.88c0-.42-.34-.83-.56-.83H4.88c-.27,0-.76.14-.76,1v3H3c-.67,0-.88.72-.88,1.18v7.82c0,.61.09,1-.38,1H1.49c-.75,0-.91,1.08-.14,2.9,0,0,2.66,6.23,2.77,6.56a.85.85,0,0,0,.85.54H26.28a.94.94,0,0,0,.87-.5c.16-.3,1.71-3.36,3.21-6.13S31,54.05,29.49,54.05ZM23.11,48.4c0-.31.22-.35.4-.35h2.3c.27,0,.31.2.31.43v1.25a.36.36,0,0,1-.4.42H23.49c-.37,0-.4-.21-.4-.5S23.11,48.71,23.11,48.4Zm3,4v1.23c0,.17,0,.42-.36.42H23.6c-.27,0-.48,0-.48-.34V52.4s0-.35.35-.35h2.27A.33.33,0,0,1,26.12,52.4Zm-11-7.92c0-.37.25-.43.54-.43h5s.5,0,.5.39v1.17c0,.21,0,.44-.46.44H15.78c-.41,0-.66,0-.66-.48Zm0,3.94a.34.34,0,0,1,.37-.37h5.27c.25,0,.36.1.36.35v1.17c0,.41-.15.48-.46.48H15.51c-.27,0-.39-.13-.39-.4Zm0,4c0-.31.23-.35.39-.35h5.23c.27,0,.38.14.38.35v1.17c0,.32,0,.48-.38.48h-5.1c-.31,0-.52-.09-.52-.34Zm-11,.94V46.48c0-.43.35-.43.54-.43H8.53c.44,0,.59.21.59.64v6.69c0,.67-.29.67-.71.67H4.7C4.08,54.05,4.12,53.63,4.12,53.34Zm24,3.89c-.69,1.18-1.88,3.19-2.47,4.38a.85.85,0,0,1-.72.44H6.62A.59.59,0,0,1,6,61.7c-.1-.25-1.74-3.94-2.17-5.22-.09-.27,0-.43.29-.43H27.37C28.47,56.05,28.83,56.05,28.13,57.23Z"/><path class="cls-6" d="M36.52,77.71a8,8,0,1,0,8,8A8,8,0,0,0,36.52,77.71Zm0,14a6,6,0,1,1,6-6A6,6,0,0,1,36.52,91.7Zm0-7.58c-.44,0-1,.14-1,.59v5c0,.36.4.64.94.64s1.06-.11,1.06-.64v-5C37.52,84.26,37,84.12,36.5,84.12Zm0-2.41a1,1,0,1,0,1,1A1,1,0,0,0,36.53,81.71Z"/><path class="cls-7" d="M287,175.21a16,16,0,1,0-15.9-16h0A15.94,15.94,0,0,0,287,175.21Zm.09-28.35a12.4,12.4,0,1,1-12.44,12.37h0A12.41,12.41,0,0,1,287.12,146.86Zm8.82,14.2v-3.54l-17.72-.05V161Z"/><path class="cls-8" d="M287.13,141.14a16,16,0,1,0-15.95-16A16,16,0,0,0,287.13,141.14Zm.09-28.4a12.43,12.43,0,1,1-12.46,12.41v0a12.43,12.43,0,0,1,12.46-12.41h0Zm-1.82,14.2,0,7.1h3.55l0-7.1,7.09,0v-3.55l-7.1,0,0-7.1h-3.55l0,7.1-7.1,0v3.55Z"/><path class="cls-9" d="M60.18,86.93a5.11,5.11,0,1,0-5.09-5.1A5.1,5.1,0,0,0,60.18,86.93Zm0-7.93a2.84,2.84,0,1,1-2.84,2.84A2.84,2.84,0,0,1,60.19,79Zm4.49,7.94a13,13,0,0,1-4.51,1.11c-2.12,0-4.1-1.11-4.43-1.11-3.17,0-4.05,1.23-4.05,6.8,0,1.81.54,2.26,2.26,2.26H66.47c1.72,0,2.22-.45,2.22-2.26C68.69,87.86,67.85,87,64.68,86.94Zm1.74,5.66a1.36,1.36,0,0,1-1.13,1.14H55.09A1.36,1.36,0,0,1,54,92.6V90.34c0-1,.58-1.14,1.14-1.14a11.77,11.77,0,0,0,10.2,0c.94-.11,1.18.55,1.18,1.36Z"/><path class="cls-10" d="M87.32,93.46H80.57a1,1,0,0,1-1.12-1.13V81.08A1,1,0,0,1,80.57,80h6.75c1.29,0,1.13,1.12,1.13,1.12H90.7V80a2.54,2.54,0,0,0-2.25-2.25h-9A2.54,2.54,0,0,0,77.2,80v13.5a2.55,2.55,0,0,0,2.25,2.25h9a2.55,2.55,0,0,0,2.25-2.25V92.33H88.45S88.62,93.46,87.32,93.46Zm4.16-7.27s-1.49-2.2-2-2.91-1-.8-1,0v2.3H85.07A1.05,1.05,0,0,0,84,86.71a1.09,1.09,0,0,0,1.12,1.12h3.38v2.25c0,.87.47.8,1,.12.51-.85,2.07-3,2.07-3A.92.92,0,0,0,91.48,86.19Z"/><path class="cls-11" d="M79.91,2.9a12,12,0,1,0,12,12A12,12,0,0,0,79.91,2.9Zm0,22a10.5,10.5,0,0,1-10-10,10.49,10.49,0,0,1,10-10,10.48,10.48,0,0,1,10,10A10.49,10.49,0,0,1,79.91,24.86Z"/><path class="cls-11" d="M78.91,7.89h2v14h-2Z"/><path class="cls-11" d="M72.93,13.88h14v2h-14Z"/><path class="cls-12" d="M79.91,41.06a12,12,0,1,0,12,12A12,12,0,0,0,79.91,41.06Zm0,22a9.66,9.66,0,0,1-10-10,10,10,0,0,1,20,0A9.66,9.66,0,0,1,79.91,63Z"/><path class="cls-12" d="M73.92,52.05h13v2h-13Z"/><path class="cls-10" d="M116.15,90.11c-1.09,0-2,.08-2-1v-4c0-2.86.2-5.27-2.42-5.27,0-1.23-.63-2.73-3.58-2.73-2.34,0-3.42,1.32-3.42,2.65-2.63,0-2.58,2.49-2.58,5.35v4c0,1.08-.92,1-2,1a1,1,0,0,0-1,1,.93.93,0,0,0,1,1h4.17a3.53,3.53,0,0,0,3.83,3,3.59,3.59,0,0,0,3.82-3h4.18a.92.92,0,0,0,1-1A1,1,0,0,0,116.15,90.11Zm-8,3.38a1.68,1.68,0,0,1-1.82-1.38H110A1.8,1.8,0,0,1,108.15,93.49Zm4-8.31v4.93h-8v-5c0-3,0-4,2-4,0-.37-.25-2,2-2s2,1.54,2,2C112.15,81.11,112.12,82,112.12,85.18Z"/><path class="cls-9" d="M141.45,93.24l-4.78-4.72a10,10,0,0,0,1-4,8,8,0,0,0-7.53-8,7.86,7.86,0,0,0-8.47,8.5A7.66,7.66,0,0,0,129,92.41a7.86,7.86,0,0,0,5.63-1.89l4.71,4.77C140.73,96.52,143.13,95.13,141.45,93.24Zm-11.78-2.72a6,6,0,0,1-6-6,6.29,6.29,0,0,1,6-6,6,6,0,0,1,0,12Z"/><path class="cls-9" d="M120,18.89c-.58-.22-3.57-.86-4.61-2-.34-.38-.38-.67.1-1.27A8.87,8.87,0,0,0,118,8.91c-.55-7.2-12.2-6.51-12,1,0,0-.44,1.92,2.52,5.68a1.55,1.55,0,0,1,.06,1.15c-.49,1.41-3,2-3.58,2.15-4.71,1.19-4,7-4,7H123S123.62,20.24,120,18.89Zm-16.93,5a4.12,4.12,0,0,1,2-3c1.93-1.09,2.6-1,4-2a3.34,3.34,0,0,0,1-4c-1.8-2.59-2.22-2.66-2.22-5.35A4.26,4.26,0,0,1,112,5.49c1.63,0,4.19.62,4.19,4s-.61,3.31-2.17,5.41a2.66,2.66,0,0,0,2,4c2.24.75,3.19.92,4,2a12.83,12.83,0,0,1,1,3Z"/><path class="cls-13" d="M180.59,14.2l-1.65-1.7a.57.57,0,0,0-.82,0l-.41.43a.61.61,0,0,0,0,.85l1.64,1.7a.56.56,0,0,0,.82,0l.42-.43A.63.63,0,0,0,180.59,14.2Zm-3.3,0a.57.57,0,0,0-.82,0l-.2.22-2.88,3h0l-.09.09a8.53,8.53,0,0,0-1,2.48V20l0,.12,0,.11,0,.09-.06.22c0,.16-.16.53,0,.67s.49,0,.65,0l.21-.07.09,0,.1,0,.12,0h0a8.3,8.3,0,0,0,2.39-1h0l.09-.09h0l2.88-3h0l.21-.21a.61.61,0,0,0,0-.85Zm-1.87,5.46h0a5.77,5.77,0,0,1-1.06.46l-.25.1-1-1c0-.09.07-.18.1-.26a6.17,6.17,0,0,1,.45-1.1h0l.07-.08,1.76,1.82Z"/><path class="cls-6" d="M178.45,5.88h-8c-1.84,0-2,1-2,2.14V23.74c0,1.18.14,2.14,2,2.14h12c2,0,2-1,2-2.14V10.91Zm2,18h-8c-.68,0-2,.25-2-2v-12c0-1.81.32-2,2-2h5l5,4v10C182.45,22.76,182.58,23.88,180.45,23.88Z"/><path class="cls-13" d="M151,10h-2.36a.86.86,0,0,1-.83-.61S147.07,7.19,146.6,7a15.6,15.6,0,0,0-5.06,0c-.75.34-1.35,2.39-1.35,2.39a.86.86,0,0,1-.83.61h-1.91C135,10,135,11.49,135,12.41V21.3A1.74,1.74,0,0,0,136.8,23h14.4A1.74,1.74,0,0,0,153,21.3V12A2.28,2.28,0,0,0,151,10Zm-9.38-.69.23-.69a.66.66,0,0,1,.61-.44l3,0a.79.79,0,0,1,.76.51l.16.44a.66.66,0,0,1-.62.89h-3.62A.52.52,0,0,1,141.62,9.29Zm8.82,9.87c0,1.86-.87,1.73-1.67,1.73H138.62c-1.43,0-1.46-.32-1.46-1.65V16.69c0-.45,0-1.44,0-2.77s-.09-1.79,2.07-1.79h9.45c1.81,0,1.78,1,1.78,1.63Z"/><path class="cls-13" d="M146.76,13.73a.34.34,0,0,0-.49,0h0L143.14,17a.16.16,0,0,1-.24,0l-1.14-1.26,0,0a.34.34,0,0,0-.49,0l-.48.47a.34.34,0,0,0,0,.48l.07.07,1.93,2.1a.29.29,0,0,0,.24.1.35.35,0,0,0,.24-.1l4-4.14a.28.28,0,0,0,0-.44Z"/><path class="cls-9" d="M116.87,57.35l-4.31-4.3,4.24-4.24a1,1,0,1,0-1.42-1.41l-4.23,4.23-4.24-4.23a1,1,0,0,0-1.47-.06,1,1,0,0,0,0,1.48l4.24,4.23-4.3,4.3a1,1,0,0,0,1.41,1.42l4.31-4.3,4.3,4.3a1,1,0,0,0,1.42-1.42Z"/><path class="cls-6" d="M208,6.41A9.59,9.59,0,1,0,217.59,16,9.59,9.59,0,0,0,208,6.41Zm4.5,8.16-4.86,5.14a1,1,0,0,1-1.39,0l-2.78-2.94a1.08,1.08,0,0,1,0-1.46.94.94,0,0,1,1.39,0l2.08,2.2,4.17-4.41a1,1,0,0,1,1.39,0A1.09,1.09,0,0,1,212.5,14.57Z"/><path class="cls-6" d="M83.07,156.17l-1.72,11.52a3.64,3.64,0,0,1-3.17,2.62v6H73.49l-2-6H36.14l-2,6H29.46v-6h-.08A3.63,3.63,0,0,1,26,167.91l0-.13-1.59-7.88L26,158.12l1.85,9.18a1.66,1.66,0,0,0,1.53,1h3l-1.31-11.9a3.57,3.57,0,0,0-1.35-2.32l1.37-1.45.23.21a4.93,4.93,0,0,1,.39.4l.24.29c.11.15.22.31.32.47l.18.31a6,6,0,0,1,.26.58c0,.1.08.19.11.29a4.94,4.94,0,0,1,.22.94l.6,4.18H52.33V145a8.32,8.32,0,0,0-3.22-.66H38.85l1.87-2h8.39a10.34,10.34,0,0,1,4.21.9,10.42,10.42,0,0,1,4.22-.9H70.9a10,10,0,0,1,9.91,9.37,4,4,0,0,1,2.26,4.46Zm-8.15,18.17h1.27v-4H73.6Zm-42.35-4H31.45v4h1.27l1.33-4Zm1.29-8,.53,6H72.93l.27-6Zm37-18H57.54a8.5,8.5,0,0,0-3.22.66v15.34h19l.27-3.79a6.06,6.06,0,0,1,.18-1.05l0-.05a6,6,0,0,1,.34-.92,2.12,2.12,0,0,1,.12-.2,5.64,5.64,0,0,1,.4-.67l.22-.26a5.12,5.12,0,0,1,.44-.49,3.56,3.56,0,0,1,.31-.26,4.25,4.25,0,0,1,.47-.37l.39-.22c.16-.09.32-.18.49-.26l.45-.16c.17,0,.34-.11.52-.15a3.85,3.85,0,0,1,.49-.08c.12,0,.24,0,.37-.06A8,8,0,0,0,70.9,144.34Zm9.81,9.75a2,2,0,0,0-1.56-.75,3.62,3.62,0,0,0-3.59,3.36l-.63,11.64h2.93a1.65,1.65,0,0,0,1.56-1.15l1.7-11.37A2.06,2.06,0,0,0,80.71,154.09Zm-11.77,2a1,1,0,0,1-.7.29,1,1,0,0,1-.7-.29l-.92-.92a3.1,3.1,0,0,1-1.36.33,3.14,3.14,0,0,1-1.37-.33l-.91.92a1,1,0,0,1-.71.29,1,1,0,0,1-.7-1.71l.91-.92a3.14,3.14,0,0,1,0-2.74l-.91-.92a1,1,0,0,1,0-1.42,1,1,0,0,1,1.41,0l.91.92a3.11,3.11,0,0,1,2.73,0l.92-.92a1,1,0,0,1,1.4,0,1,1,0,0,1,0,1.42L68,151a3.14,3.14,0,0,1,0,2.74l.91.92A1,1,0,0,1,68.94,156.05Zm-2.9-4.5a1.08,1.08,0,0,0-.78-.33,1.12,1.12,0,1,0,.78.33ZM51.33,139.93l-2.06-.05v-6.72l2-2.19Zm-5.74,0,0-2.73,1.77-1.91v5.09C46,139.69,46.29,139.87,45.59,139.89Zm-7.89,8.74a1,1,0,0,1,1.41,0l.92.92a3.11,3.11,0,0,1,2.73,0l.91-.92a1,1,0,0,1,1.41,0,1,1,0,0,1,0,1.42l-.92.92a3.07,3.07,0,0,1,0,2.74l.92.92a1,1,0,0,1,0,1.42,1,1,0,0,1-1.41,0l-.91-.92a3.14,3.14,0,0,1-1.37.33,3.1,3.1,0,0,1-1.36-.33l-.92.92a1,1,0,0,1-.7.29,1,1,0,0,1-.7-.29,1,1,0,0,1,0-1.42l.92-.92a3.14,3.14,0,0,1,0-2.74l-.92-.92A1,1,0,0,1,37.7,148.63Zm2.9,4.5a1.12,1.12,0,1,0,.79-1.91,1.12,1.12,0,0,0-.79,1.91ZM2.66,175.6,65.6,108.66,67,110.08,4.07,177Zm32.67-39v-6.3h2v4.16Zm-4,4.29V111.34h16v12.44l-1.88,2-.12-12.46h-12v25.44Zm-9.6-10.57v6.12H19.66v-6.12Zm.11,9.26H19.55v-2.05h2.29Zm-5.76,15.69h1.83l-1.83,2Zm-.95,3-1.91,2.05H9l.31-49h16v36a17.05,17.05,0,0,0-2,2l.29-36.28H11.08v45.23Zm34.2-48.95h-20v33.73l-2,2.14V109.34h-20L7.4,162h4.3l-1.91,2H7.4v2.57l-2.07,2.21V107.34h46V119.5l-2,2.17Zm-23,63a3,3,0,0,1,.34.55H12.21l1.91-2H25C25.39,171.32,25.81,171.68,26.33,172.34Zm-2.39-2.16H21.88v-2.05h2.06ZM22.81,162c.09.68.19,1.36.31,2H20.5l1.91-2Zm1,5.4H17.37l1.92-2.05h4.07C23.5,166,23.64,166.67,23.81,167.36Zm3.31,6.93a13.54,13.54,0,0,1,.23,2.05H9l1.91-2.05Z"/><g id="Layer_2" data-name="Layer 2"><g id="Outline_Free_Icons" data-name="Outline Free Icons"><path class="cls-1" d="M297.44,210.21a7,7,0,1,0,7,7A7,7,0,0,0,297.44,210.21Zm1.39,8.36v3.86h-2.78v-3.86h-3.86v-2.78h3.86v-3.86h2.78v3.86h3.86v2.78Z"/><path class="cls-1" d="M290.09,220.93h-11.2a1.81,1.81,0,0,1-1.81-1.81V201.48a2.51,2.51,0,0,1,2.51-2.52h4a4.14,4.14,0,0,0,8.18,0h5.49a1.82,1.82,0,0,1,1.81,1.81v8.34a6,6,0,0,1,1.6.69v-9a3.41,3.41,0,0,0-3.41-3.41H291.7a4.14,4.14,0,0,0-8.08,0h-4a4.13,4.13,0,0,0-4.12,4.12v17.64a3.42,3.42,0,0,0,3.42,3.42h12.38A5.36,5.36,0,0,1,290.09,220.93Zm-2.43-24.78a2.15,2.15,0,1,1-2,2.81h.06c0-.05-.07-.11-.11-.17a2.14,2.14,0,0,1,2.08-2.64Z"/><rect class="cls-1" x="280.83" y="204.19" width="14.47" height="2.68"/><rect class="cls-1" x="280.96" y="209.54" width="8.04" height="2.85"/><rect class="cls-1" x="281.26" y="214.87" width="4.92" height="2.85"/></g></g><path class="cls-14" d="M230.57,11.5A1.55,1.55,0,0,0,229,13.05v7a1.37,1.37,0,0,0,1.54,1.33S232,21.39,232,20V13A1.51,1.51,0,0,0,230.57,11.5ZM233,22c0,.79.22,2,1,2h2v3c0,1.14.12,2,1.4,2s1.6-.79,1.6-2V24h2v3c0,1.18.21,2,1.51,2,.91,0,1.49-.35,1.49-2V24h2c.78,0,1-1.21,1-2V12H233ZM243.58,5.28l1.2-1.87a.26.26,0,1,0-.43-.28l-1.24,1.93a8.18,8.18,0,0,0-6.15,0l-1.24-1.93a.26.26,0,1,0-.43.28l1.2,1.87C234.32,6.35,233,7.71,233,10c0,.15,0,.87,0,1h14c0-.13,0-.85,0-1C247,7.71,245.74,6.35,243.58,5.28Zm-6.86,3.34a.69.69,0,1,1,.69-.69A.69.69,0,0,1,236.72,8.62Zm6.63,0a.69.69,0,1,1,0-1.38.69.69,0,0,1,0,1.38Zm6.08,2.88A1.41,1.41,0,0,0,248,13v7a1.25,1.25,0,0,0,1.4,1.33s1.6.08,1.6-1.33V13C251,11.53,249.43,11.5,249.43,11.5Z"/><path class="cls-14" d="M282.4,21.79a5.41,5.41,0,0,1-3.26-5c0-3.88.94-4.11,2.69-5-1.56-2.5-3.38-2.77-4.31-2.81a12.76,12.76,0,0,0-3.89.92,5,5,0,0,1-1.44.43,4.53,4.53,0,0,1-1.49-.44c-1.59-.63-2.08-1.14-3.18-.91a6,6,0,0,0-5,4,13.55,13.55,0,0,0,1.69,12.66c1.2,1.75,2.64,3.34,4.31,3.34a24,24,0,0,1,4-1c1.06,0,3.23,1,4,1,1.42,0,5.88-2.75,5.89-7.23ZM272,9.34h.27a4.93,4.93,0,0,0,3.66-1.89,5.92,5.92,0,0,0,1.37-4.24.21.21,0,0,0-.22-.19,5.82,5.82,0,0,0-3.88,2,5.59,5.59,0,0,0-1.39,4.12A.19.19,0,0,0,272,9.34Z"/></svg>