<svg xmlns="http://www.w3.org/2000/svg" xmlns:xlink="http://www.w3.org/1999/xlink" width="1905.96" height="223.05" viewBox="0 0 1905.96 223.05"><defs><style>.cls-1{fill:#c8c8c8;opacity:0.7;isolation:isolate;}.cls-2{fill:url(#linear-gradient);}.cls-3{fill:url(#linear-gradient-2);}.cls-4{fill:url(#linear-gradient-3);}.cls-5{fill:url(#linear-gradient-4);}.cls-6{fill:url(#linear-gradient-5);}.cls-7{fill:url(#linear-gradient-6);}.cls-8{fill:url(#linear-gradient-7);}.cls-9{fill:url(#linear-gradient-8);}.cls-10{fill:url(#linear-gradient-9);}.cls-11{fill:url(#linear-gradient-10);}.cls-12{fill:url(#linear-gradient-11);}.cls-13{fill:url(#linear-gradient-12);}.cls-14{fill:url(#linear-gradient-13);}.cls-15{fill:url(#linear-gradient-14);}.cls-16{fill:url(#linear-gradient-15);}.cls-17{fill:url(#linear-gradient-16);}.cls-18{fill:url(#linear-gradient-17);}.cls-19{fill:url(#linear-gradient-18);}.cls-20{fill:url(#linear-gradient-19);}.cls-21{fill:url(#linear-gradient-20);}.cls-22{fill:url(#linear-gradient-21);}.cls-23{fill:url(#linear-gradient-22);}.cls-24{fill:url(#linear-gradient-23);}.cls-25{fill:url(#linear-gradient-24);}.cls-26{fill:url(#linear-gradient-25);}.cls-27{fill:url(#linear-gradient-26);}.cls-28{fill:url(#linear-gradient-27);}.cls-29{fill:url(#linear-gradient-28);}.cls-30{fill:url(#linear-gradient-29);}.cls-31{fill:url(#linear-gradient-30);}.cls-32{fill:url(#linear-gradient-31);}.cls-33{fill:url(#linear-gradient-32);}.cls-34{fill:url(#linear-gradient-33);}.cls-35{fill:url(#linear-gradient-34);}.cls-36{fill:url(#linear-gradient-35);}.cls-37{fill:url(#linear-gradient-36);}.cls-38{fill:url(#linear-gradient-37);}.cls-39{fill:url(#linear-gradient-38);}.cls-40{fill:url(#linear-gradient-39);}.cls-41{fill:url(#linear-gradient-40);}.cls-42{fill:url(#linear-gradient-41);}.cls-43{fill:url(#linear-gradient-42);}.cls-44{fill:url(#linear-gradient-43);}.cls-45{fill:url(#linear-gradient-44);}.cls-46{fill:url(#linear-gradient-45);}.cls-47{fill:url(#linear-gradient-46);}.cls-48{fill:url(#linear-gradient-47);}.cls-49{fill:url(#linear-gradient-48);}.cls-50{fill:url(#linear-gradient-49);}.cls-51{fill:url(#linear-gradient-50);}.cls-52{fill:url(#linear-gradient-51);}.cls-53{fill:url(#linear-gradient-52);}.cls-54{fill:url(#linear-gradient-53);}.cls-55{fill:url(#linear-gradient-54);}.cls-56{fill:url(#linear-gradient-55);}.cls-57{fill:url(#linear-gradient-56);}.cls-58{fill:url(#linear-gradient-57);}.cls-59{fill:url(#linear-gradient-58);}.cls-60{fill:url(#linear-gradient-59);}.cls-61{fill:url(#linear-gradient-60);}.cls-62{fill:url(#linear-gradient-61);}.cls-63{fill:url(#linear-gradient-62);}.cls-64{fill:url(#linear-gradient-63);}.cls-65{fill:url(#linear-gradient-64);}.cls-66{fill:url(#linear-gradient-65);}.cls-67{fill:url(#linear-gradient-66);}.cls-68{fill:url(#linear-gradient-67);}.cls-69{fill:url(#linear-gradient-68);}.cls-70{fill:url(#linear-gradient-69);}.cls-71{fill:url(#linear-gradient-70);}.cls-72{fill:url(#linear-gradient-71);}.cls-73{fill:url(#linear-gradient-72);}.cls-74{fill:url(#linear-gradient-73);}.cls-75{fill:url(#linear-gradient-74);}.cls-76{fill:url(#linear-gradient-75);}.cls-77{fill:url(#linear-gradient-76);}.cls-78{fill:url(#linear-gradient-77);}.cls-79{fill:url(#linear-gradient-78);}.cls-80{fill:url(#linear-gradient-79);}.cls-81{fill:url(#linear-gradient-80);}.cls-82{fill:url(#linear-gradient-81);}.cls-83{fill:url(#linear-gradient-82);}.cls-84{fill:url(#linear-gradient-83);}.cls-85{fill:url(#linear-gradient-84);}.cls-86{fill:url(#linear-gradient-85);}.cls-87{fill:url(#linear-gradient-86);}.cls-88{fill:url(#linear-gradient-87);}.cls-89{fill:url(#linear-gradient-88);}.cls-90{fill:url(#linear-gradient-89);}.cls-91{fill:url(#linear-gradient-90);}</style><linearGradient id="linear-gradient" x1="1649.26" y1="33.15" x2="1717.64" y2="72.22" gradientTransform="matrix(1, 0, 0, -1, 0, 224.04)" gradientUnits="userSpaceOnUse"><stop offset="0" stop-color="#5e5f61"/><stop offset="0.66" stop-color="#b1b2b4"/><stop offset="1" stop-color="#dddfe0"/></linearGradient><linearGradient id="linear-gradient-2" x1="1666.23" y1="3.45" x2="1734.61" y2="42.52" xlink:href="#linear-gradient"/><linearGradient id="linear-gradient-3" x1="1664.72" y1="6.11" x2="1733.09" y2="45.18" xlink:href="#linear-gradient"/><linearGradient id="linear-gradient-4" x1="1658.67" y1="16.69" x2="1727.05" y2="55.76" gradientTransform="matrix(0.71, 0.71, 0.71, -0.71, 470.17, -983.93)" xlink:href="#linear-gradient"/><linearGradient id="linear-gradient-5" x1="1657.68" y1="18.43" x2="1726.05" y2="57.5" gradientTransform="matrix(0.71, 0.71, 0.71, -0.71, 469.66, -975.74)" xlink:href="#linear-gradient"/><linearGradient id="linear-gradient-6" x1="1665.08" y1="5.46" x2="1733.46" y2="44.53" xlink:href="#linear-gradient"/><linearGradient id="linear-gradient-7" x1="1677.79" y1="-16.77" x2="1746.17" y2="22.3" xlink:href="#linear-gradient"/><linearGradient id="linear-gradient-8" x1="1669.91" y1="-2.98" x2="1738.29" y2="36.09" gradientTransform="matrix(0.69, 0.73, 0.73, -0.69, 517.54, -1051.22)" xlink:href="#linear-gradient"/><linearGradient id="linear-gradient-9" x1="1653.53" y1="25.69" x2="1721.9" y2="64.76" xlink:href="#linear-gradient"/><linearGradient id="linear-gradient-10" x1="1675.84" y1="-13.35" x2="1744.21" y2="25.72" xlink:href="#linear-gradient"/><linearGradient id="linear-gradient-11" x1="1663.61" y1="8.04" x2="1731.99" y2="47.11" xlink:href="#linear-gradient"/><linearGradient id="linear-gradient-12" x1="1678.51" y1="-18.04" x2="1746.89" y2="21.03" xlink:href="#linear-gradient"/><linearGradient id="linear-gradient-13" x1="1473.02" y1="-64.67" x2="1552.91" y2="11.19" gradientTransform="matrix(1.09, -0.04, 0.04, -1.09, -167.74, 334.61)" xlink:href="#linear-gradient"/><linearGradient id="linear-gradient-14" x1="1490.12" y1="-2.56" x2="1570" y2="73.29" xlink:href="#linear-gradient"/><linearGradient id="linear-gradient-15" x1="1487.82" y1="-0.17" x2="1567.7" y2="75.68" xlink:href="#linear-gradient"/><linearGradient id="linear-gradient-16" x1="1510.49" y1="-24.05" x2="1590.38" y2="51.81" xlink:href="#linear-gradient"/><linearGradient id="linear-gradient-17" x1="1509.96" y1="-23.5" x2="1589.85" y2="52.36" xlink:href="#linear-gradient"/><linearGradient id="linear-gradient-18" x1="1512.79" y1="-26.47" x2="1592.68" y2="49.38" xlink:href="#linear-gradient"/><linearGradient id="linear-gradient-19" x1="601.58" y1="-327.91" x2="681.47" y2="-252.06" gradientTransform="matrix(1.1, 0, 0, -1.07, 163.28, 460.82)" xlink:href="#linear-gradient"/><linearGradient id="linear-gradient-20" x1="629.24" y1="-385.5" x2="709.13" y2="-309.65" gradientTransform="matrix(1.17, 0, 0, -1.07, 57.49, 428.39)" xlink:href="#linear-gradient"/><linearGradient id="linear-gradient-21" x1="1486.84" y1="0.86" x2="1566.73" y2="76.71" xlink:href="#linear-gradient"/><linearGradient id="linear-gradient-22" x1="1501.74" y1="-14.84" x2="1581.63" y2="61.01" xlink:href="#linear-gradient"/><linearGradient id="linear-gradient-23" x1="-128.72" y1="-866.22" x2="-48.83" y2="-790.36" gradientTransform="matrix(0, -0.77, -1.07, 0, 2326.52, 1387.88)" xlink:href="#linear-gradient"/><linearGradient id="linear-gradient-24" x1="658.49" y1="-183.34" x2="738.38" y2="-107.49" gradientTransform="matrix(0.74, 0, 0, -1.07, 761.82, 390.74)" xlink:href="#linear-gradient"/><linearGradient id="linear-gradient-25" x1="1051.15" y1="28.69" x2="1144.21" y2="102.56" gradientTransform="matrix(0.71, 0.71, 0.71, -0.71, 283.84, -540.78)" xlink:href="#linear-gradient"/><linearGradient id="linear-gradient-26" x1="1084.31" y1="-13.33" x2="1176.91" y2="60.18" gradientTransform="matrix(0.71, 0.71, 0.71, -0.71, 310.17, -597.72)" xlink:href="#linear-gradient"/><linearGradient id="linear-gradient-27" x1="1072.57" y1="0.75" x2="1165.44" y2="74.47" xlink:href="#linear-gradient"/><linearGradient id="linear-gradient-28" x1="1042.18" y1="40.26" x2="1134.8" y2="113.78" xlink:href="#linear-gradient"/><linearGradient id="linear-gradient-29" x1="1044.75" y1="37.19" x2="1135.32" y2="109.08" xlink:href="#linear-gradient"/><linearGradient id="linear-gradient-30" x1="1069.28" y1="6.6" x2="1161.53" y2="79.83" xlink:href="#linear-gradient"/><linearGradient id="linear-gradient-31" x1="1063.67" y1="11.7" x2="1157.02" y2="85.8" xlink:href="#linear-gradient"/><linearGradient id="linear-gradient-32" x1="1053.19" y1="24.48" x2="1147.98" y2="99.73" xlink:href="#linear-gradient"/><linearGradient id="linear-gradient-33" x1="1062.81" y1="15.41" x2="1154.27" y2="88.01" xlink:href="#linear-gradient"/><linearGradient id="linear-gradient-34" x1="1075.03" y1="0.39" x2="1166.48" y2="72.99" xlink:href="#linear-gradient"/><linearGradient id="linear-gradient-35" x1="1038.82" y1="45.5" x2="1130.26" y2="118.08" xlink:href="#linear-gradient"/><linearGradient id="linear-gradient-36" x1="1041.45" y1="40.24" x2="1136.56" y2="115.73" xlink:href="#linear-gradient"/><linearGradient id="linear-gradient-37" x1="811.75" y1="56.39" x2="874.7" y2="119.33" xlink:href="#linear-gradient"/><linearGradient id="linear-gradient-38" x1="809.96" y1="56.22" x2="873.06" y2="119.32" xlink:href="#linear-gradient"/><linearGradient id="linear-gradient-39" x1="822.11" y1="27.56" x2="895.35" y2="100.79" xlink:href="#linear-gradient"/><linearGradient id="linear-gradient-40" x1="793.61" y1="69.01" x2="867.29" y2="142.69" gradientTransform="matrix(1.02, 0.02, -0.02, -1.02, -17.91, 203.93)" xlink:href="#linear-gradient"/><linearGradient id="linear-gradient-41" x1="790.9" y1="50.46" x2="874.08" y2="133.63" gradientTransform="matrix(1.01, 0.01, -0.01, -1.01, -10.32, 212.47)" xlink:href="#linear-gradient"/><linearGradient id="linear-gradient-42" x1="794.57" y1="66.85" x2="865.61" y2="137.9" xlink:href="#linear-gradient"/><linearGradient id="linear-gradient-43" x1="834.41" y1="43.73" x2="901.58" y2="110.9" gradientTransform="matrix(1.01, -0.01, 0.01, -1.01, -16.32, 240.36)" xlink:href="#linear-gradient"/><linearGradient id="linear-gradient-44" x1="821.28" y1="40.48" x2="884.54" y2="103.73" xlink:href="#linear-gradient"/><linearGradient id="linear-gradient-45" x1="830.99" y1="34.15" x2="894.64" y2="97.8" xlink:href="#linear-gradient"/><linearGradient id="linear-gradient-46" x1="405.51" y1="28.66" x2="478.84" y2="93.22" xlink:href="#linear-gradient"/><linearGradient id="linear-gradient-47" x1="437.64" y1="-5.6" x2="510.54" y2="58.57" xlink:href="#linear-gradient"/><linearGradient id="linear-gradient-48" x1="407.34" y1="29.4" x2="478.16" y2="91.75" xlink:href="#linear-gradient"/><linearGradient id="linear-gradient-49" x1="418.44" y1="16.21" x2="490.55" y2="79.69" xlink:href="#linear-gradient"/><linearGradient id="linear-gradient-50" x1="433.62" y1="-1.51" x2="506.93" y2="63.02" xlink:href="#linear-gradient"/><linearGradient id="linear-gradient-51" x1="434.45" y1="0.8" x2="505.3" y2="63.17" xlink:href="#linear-gradient"/><linearGradient id="linear-gradient-52" x1="461.95" y1="12.85" x2="538.13" y2="79.91" gradientTransform="matrix(1.01, -0.03, 0.01, -1.01, -23.4, 275)" xlink:href="#linear-gradient"/><linearGradient id="linear-gradient-53" x1="421.05" y1="13.38" x2="493.21" y2="76.91" xlink:href="#linear-gradient"/><linearGradient id="linear-gradient-54" x1="416.62" y1="16.28" x2="490.68" y2="81.48" xlink:href="#linear-gradient"/><linearGradient id="linear-gradient-55" x1="579.4" y1="35.04" x2="659.02" y2="80.54" xlink:href="#linear-gradient"/><linearGradient id="linear-gradient-56" x1="599.17" y1="0.78" x2="678.79" y2="46.28" xlink:href="#linear-gradient"/><linearGradient id="linear-gradient-57" x1="595.08" y1="2.52" x2="676.81" y2="49.22" xlink:href="#linear-gradient"/><linearGradient id="linear-gradient-58" x1="590.21" y1="15.95" x2="670.07" y2="61.59" gradientTransform="matrix(0.71, 0.71, 0.71, -0.71, 157.1, -233.27)" xlink:href="#linear-gradient"/><linearGradient id="linear-gradient-59" x1="588.64" y1="17.73" x2="669.91" y2="64.17" gradientTransform="matrix(0.71, 0.71, 0.71, -0.71, 156.51, -223.82)" xlink:href="#linear-gradient"/><linearGradient id="linear-gradient-60" x1="597.07" y1="2.66" x2="677.35" y2="48.54" xlink:href="#linear-gradient"/><linearGradient id="linear-gradient-61" x1="611.58" y1="-23.16" x2="691.98" y2="22.79" xlink:href="#linear-gradient"/><linearGradient id="linear-gradient-62" x1="601.72" y1="-7.55" x2="682.61" y2="38.67" gradientTransform="matrix(0.69, 0.73, 0.73, -0.69, 185.35, -285.19)" xlink:href="#linear-gradient"/><linearGradient id="linear-gradient-63" x1="584.5" y1="26.52" x2="665.16" y2="72.62" xlink:href="#linear-gradient"/><linearGradient id="linear-gradient-64" x1="607.21" y1="-20.41" x2="689.43" y2="26.58" xlink:href="#linear-gradient"/><linearGradient id="linear-gradient-65" x1="595.92" y1="5.96" x2="678.06" y2="52.9" xlink:href="#linear-gradient"/><linearGradient id="linear-gradient-66" x1="611.1" y1="-25.37" x2="693.26" y2="21.57" xlink:href="#linear-gradient"/><linearGradient id="linear-gradient-67" x1="149.19" y1="29.91" x2="242.25" y2="103.79" gradientTransform="matrix(0.71, 0.71, 0.71, -0.71, 18.78, 96.65)" xlink:href="#linear-gradient"/><linearGradient id="linear-gradient-68" x1="182.34" y1="-12.1" x2="274.93" y2="61.4" gradientTransform="matrix(0.71, 0.71, 0.71, -0.71, 45.13, 39.72)" xlink:href="#linear-gradient"/><linearGradient id="linear-gradient-69" x1="170.61" y1="1.98" x2="263.47" y2="75.7" xlink:href="#linear-gradient"/><linearGradient id="linear-gradient-70" x1="140.21" y1="41.49" x2="232.83" y2="115.01" xlink:href="#linear-gradient"/><linearGradient id="linear-gradient-71" x1="142.79" y1="38.41" x2="233.35" y2="110.3" xlink:href="#linear-gradient"/><linearGradient id="linear-gradient-72" x1="167.31" y1="7.82" x2="259.56" y2="81.05" xlink:href="#linear-gradient"/><linearGradient id="linear-gradient-73" x1="161.7" y1="12.93" x2="255.05" y2="87.03" xlink:href="#linear-gradient"/><linearGradient id="linear-gradient-74" x1="151.21" y1="25.71" x2="246" y2="100.96" xlink:href="#linear-gradient"/><linearGradient id="linear-gradient-75" x1="160.84" y1="16.65" x2="252.29" y2="89.24" xlink:href="#linear-gradient"/><linearGradient id="linear-gradient-76" x1="173.06" y1="1.62" x2="264.51" y2="74.21" xlink:href="#linear-gradient"/><linearGradient id="linear-gradient-77" x1="136.85" y1="46.72" x2="228.29" y2="119.31" xlink:href="#linear-gradient"/><linearGradient id="linear-gradient-78" x1="139.48" y1="41.47" x2="234.58" y2="116.97" xlink:href="#linear-gradient"/><linearGradient id="linear-gradient-79" x1="79.96" y1="-9.44" x2="159.85" y2="66.41" gradientTransform="matrix(1.09, -0.04, 0.04, -1.09, -167.73, 334.61)" xlink:href="#linear-gradient"/><linearGradient id="linear-gradient-80" x1="-23.81" y1="-0.88" x2="56.08" y2="74.98" xlink:href="#linear-gradient"/><linearGradient id="linear-gradient-81" x1="-26.11" y1="1.5" x2="53.78" y2="77.36" xlink:href="#linear-gradient"/><linearGradient id="linear-gradient-82" x1="-3.43" y1="-22.38" x2="76.46" y2="53.47" xlink:href="#linear-gradient"/><linearGradient id="linear-gradient-83" x1="-3.96" y1="-21.82" x2="75.93" y2="54.03" xlink:href="#linear-gradient"/><linearGradient id="linear-gradient-84" x1="-1.14" y1="-24.79" x2="78.75" y2="51.07" xlink:href="#linear-gradient"/><linearGradient id="linear-gradient-85" x1="-371.28" y1="672.89" x2="-291.39" y2="748.75" gradientTransform="matrix(1.1, 0, 0, -1.07, -281.33, 1530.84)" xlink:href="#linear-gradient"/><linearGradient id="linear-gradient-86" x1="-284.31" y1="616.45" x2="-204.42" y2="692.3" gradientTransform="matrix(1.17, 0, 0, -1.07, -387.11, 1498.41)" xlink:href="#linear-gradient"/><linearGradient id="linear-gradient-87" x1="-27.08" y1="2.53" x2="52.8" y2="78.39" xlink:href="#linear-gradient"/><linearGradient id="linear-gradient-88" x1="-12.17" y1="-13.17" x2="67.71" y2="62.68" xlink:href="#linear-gradient"/><linearGradient id="linear-gradient-89" x1="1261.42" y1="131.56" x2="1341.31" y2="207.42" gradientTransform="matrix(0, -0.77, -1.07, 0, 1881.92, 2457.88)" xlink:href="#linear-gradient"/><linearGradient id="linear-gradient-90" x1="-786.66" y1="818.1" x2="-706.77" y2="893.95" gradientTransform="matrix(0.74, 0, 0, -1.07, 317.22, 1460.75)" xlink:href="#linear-gradient"/></defs><title>Footerbg</title><g id="Layer_2" data-name="Layer 2"><g id="Layer_1-2" data-name="Layer 1"><g id="Layer_1-3" data-name="Layer 1"><path class="cls-1" d="M335.52,202.48c-.76.65-1.52,1.34-2.3,2-4.64,4.23-9.44,8.6-18.86,8.6a19.88,19.88,0,0,1-13.53-4.73,1.86,1.86,0,0,0-2.51,0,22.69,22.69,0,0,1-16,6.11,21.82,21.82,0,0,1-16.12-6.7,1.86,1.86,0,0,0-1.36-.6,2.08,2.08,0,0,0-1.37.59c-4.17,4.43-9.12,6.5-15.55,6.5-5.83,0-11.06-2.08-14.34-5.72a1.86,1.86,0,0,0-1.31-.61,1.9,1.9,0,0,0-1.36.51c-5.47,5.2-11,7.62-17.38,7.62a24,24,0,0,1-19.87-10.71,1.87,1.87,0,0,0-2.9-.28,28.17,28.17,0,0,1-21.15,8.94c-8.53,0-13.17-7.48-14.77-10.69a1.86,1.86,0,0,0-1.48-1,1.84,1.84,0,0,0-1.65.71c-3.08,3.94-7.35,7.94-15.35,7.94a19.92,19.92,0,0,1-16.13-8,1.87,1.87,0,0,0-2.85-.2,28.68,28.68,0,0,1-10.75,6.73l-3.82,1.15a33.33,33.33,0,0,1-7.61.9,27.2,27.2,0,0,1-10.71-2.07A1.87,1.87,0,1,0,83,213a30.93,30.93,0,0,0,12.19,2.38,35.62,35.62,0,0,0,23.34-8.45,23.79,23.79,0,0,0,17.82,7.9,21.12,21.12,0,0,0,16.5-7.26c4.08,6.6,10.06,10.32,16.75,10.32a32,32,0,0,0,22.23-8.53,27.79,27.79,0,0,0,21.68,10.58c6.77,0,12.88-2.42,18.61-7.42a23.45,23.45,0,0,0,15.79,5.63,23.82,23.82,0,0,0,16.9-6.32,25.87,25.87,0,0,0,17.5,6.53,26.19,26.19,0,0,0,17.23-6A24.12,24.12,0,0,0,314.34,217c10.87,0,16.69-5.31,21.37-9.57l0-.1c.75-.69,1.48-1.36,2.22-2a1.86,1.86,0,0,0-2.43-2.82Z"/><path class="cls-1" d="M134.22,29.53a1.55,1.55,0,0,0,1.08-.44,1.5,1.5,0,0,0,.44-1.08c-.1-7.77-.31-23.93-12-23.93a10.33,10.33,0,0,0-6.34,2.18c-2.91-4-6.53-6.24-10.33-6.24-6.82,0-10.82,6.81-12.76,11.4a11.24,11.24,0,0,0-7.37-2.87c-9,0-15.68,9.18-15.68,17.39a15,15,0,0,0,.09,1.65,1.51,1.51,0,1,0,3-.33,11.92,11.92,0,0,1-.07-1.32c0-6.66,5.54-14.39,12.68-14.39a8.89,8.89,0,0,1,6.78,3.55,1.5,1.5,0,0,0,2.58-.47C97.25,11.91,100.76,3,107.07,3c4.26,0,7.32,3.94,8.74,6.27a1.5,1.5,0,0,0,2.36.26,7.57,7.57,0,0,1,5.55-2.49c7.34,0,8.76,9.58,9,19.43-5-.1-9.52-.1-13.7-.1-15.74,0-28.75.51-40.94,1.51a1.5,1.5,0,1,0,.12,3h.13c12.1-1,25-1.5,40.68-1.5C123.6,29.4,128.58,29.45,134.22,29.53Z"/><path class="cls-1" d="M348.57,141.26c-1.1.78-2.2,1.6-3.27,2.45l-.1.08a1.5,1.5,0,1,0,2,2.23,38.54,38.54,0,0,1,3.13-2.34,1.5,1.5,0,0,0-1.77-2.42Z"/><path class="cls-1" d="M488.18,98.83a1.37,1.37,0,0,0-1.53-1.19c-1.22.17-2.44.37-3.62.58a1.41,1.41,0,0,0-1.11,1.63,1.37,1.37,0,0,0,1.34,1.17h.23v0c1.16-.21,2.34-.39,3.53-.56a1.4,1.4,0,0,0,1.17-1.58Z"/><path class="cls-1" d="M476.61,101a1.36,1.36,0,0,0-1.65-1c-1.18.33-2.36.69-3.53,1.07a1.42,1.42,0,0,0-.88,1.77,1.36,1.36,0,0,0,1.29,1,1.3,1.3,0,0,0,.41-.07l0,0c1.13-.34,2.28-.68,3.42-1a1.42,1.42,0,0,0,1-1.73Z"/><path class="cls-1" d="M465.42,104.83a1.34,1.34,0,0,0-1.77-.69c-1.12.49-2.25,1-3.35,1.58a1.44,1.44,0,0,0-.63,1.88,1.35,1.35,0,0,0,1.22.8,1.31,1.31,0,0,0,.59-.14v0c1.07-.53,2.16-1.05,3.24-1.53a1.43,1.43,0,0,0,.71-1.85Z"/><path class="cls-1" d="M510.35,96.76q-1.78-.14-3.65-.14a1.41,1.41,0,1,0-.07,2.82q1.84,0,3.58.14h.06a1.41,1.41,0,1,0,.08-2.82Z"/><path class="cls-1" d="M454.87,110.21a1.33,1.33,0,0,0-1.83-.42c-1,.61-2.1,1.3-3.1,2h0a1.44,1.44,0,0,0-.39,2,1.34,1.34,0,0,0,1.14.64,1.31,1.31,0,0,0,.74-.23h0c1-.71,2-1.37,3-2a1.44,1.44,0,0,0,.46-1.94Z"/><path class="cls-1" d="M498.48,96.59q-1.83.06-3.65.17a1.41,1.41,0,0,0,.08,2.82H495q1.78-.11,3.58-.17a1.41,1.41,0,0,0-.08-2.82Z"/><path class="cls-1" d="M445.14,117h0a1.32,1.32,0,0,0-1.86-.2q-1.42,1.15-2.85,2.38a1.45,1.45,0,0,0-.18,2,1.28,1.28,0,0,0,1.87.19h0q1.4-1.2,2.79-2.32a1.45,1.45,0,0,0,.24-2Z"/><path class="cls-1" d="M360.2,134.62c-1.23.54-2.48,1.13-3.7,1.76l-.09,0-.14.08a1.5,1.5,0,1,0,1.61,2.53c1.16-.6,2.34-1.16,3.52-1.67h0a1.5,1.5,0,0,0-1.25-2.73Z"/><path class="cls-1" d="M372.93,130.73c-1.33.24-2.68.54-4,.88h0a1.5,1.5,0,0,0,.76,2.9c1.25-.33,2.53-.61,3.8-.84h.09a1.5,1.5,0,0,0-.63-2.93Z"/><path class="cls-1" d="M394.46,128l-.07-.15a7.13,7.13,0,0,0-4.74-4.33c-3.39-1.13-6.62-.08-8.24,2.5h0a7.85,7.85,0,0,0-1.54,2.73c-1.57,4.55.27,8.67,4.43,10.07s8.47-1,10-5.55a8.54,8.54,0,0,0,.25-4.78A1.49,1.49,0,0,0,394.46,128Zm-3,4.36c-.84,2.51-3.31,4.66-6.24,3.66v0a4,4,0,0,1-2.89-3.43h.16a1.5,1.5,0,0,0,1.14-1.79,4.42,4.42,0,0,1-.08-2.34,3.74,3.74,0,0,1,.24-.56,5.16,5.16,0,0,1,5.14-.93,4.59,4.59,0,0,1,2.59,2A5.56,5.56,0,0,1,391.49,132.36Z"/><path class="cls-1" d="M409.16,64.77a10.39,10.39,0,0,0-3.81.74c-2.53-7.64-8.29-11.64-13-11.64-8.76,0-14.31,11.14-17.06,17.71-3.1-4-7-6-9.76-6-6,0-11.68,12-12,16.78a1.5,1.5,0,0,0,3,.2c.36-6,6.45-14,9-14,1.55,0,5.8,1.69,8.8,6.91a1.48,1.48,0,0,0,1.41.74,1.5,1.5,0,0,0,1.28-.94c3.12-7.91,8.11-18.43,15.32-18.43,3.8,0,8.81,3.9,10.62,11.14a1.5,1.5,0,0,0,2.24.91,7.62,7.62,0,0,1,4-1.15c3.74,0,8.11,3.2,8.11,12.2L414.8,80a6.84,6.84,0,0,0,2.4-1.07v-.19a3.05,3.05,0,0,1-2.47,1,80.52,80.52,0,0,0-8.55.32h.89c.9,0,1.82.06,2.74.12-8.72.39-17.41,1.06-25.88,1.72-7.28.54-14.81,1.15-22.19,1.54a1.5,1.5,0,1,0,.08,3h.08c7.42-.39,15-1,22.26-1.54,11.31-.88,23-1.79,34.61-2a1.5,1.5,0,0,0,1.5-1.38V80C420.27,69.48,414.69,64.77,409.16,64.77Z"/><path class="cls-1" d="M952.15,188.91h0c1.36-.26,2.7-.57,4-.91h.16a1.5,1.5,0,1,0-.91-2.86c-1.25.32-2.53.61-3.82.87h-.09a1.5,1.5,0,1,0,.66,2.89Z"/><path class="cls-1" d="M939,190.45v0c1.36-.06,2.73-.14,4.07-.26h.11a1.51,1.51,0,1,0-.37-3c-1.29.11-2.61.19-3.93.24a1.5,1.5,0,0,0,.12,3Z"/><path class="cls-1" d="M984.61,170.25a1.5,1.5,0,0,0,2-.18c.91-1,1.8-2.06,2.64-3.14a1.5,1.5,0,0,0-.27-2.1l0,0a1.5,1.5,0,0,0-2.1.26c-.79,1-1.64,2-2.5,3h0a1.5,1.5,0,0,0,.11,2.12Z"/><path class="cls-1" d="M316.51,210.14a1.86,1.86,0,0,0,1.39-2.24l-3.63.85A1.86,1.86,0,0,0,316.51,210.14Z"/><path class="cls-1" d="M976.59,178.83h0c1.12-.78,2.23-1.6,3.3-2.45A1.5,1.5,0,0,0,978,174c-1,.81-2.06,1.59-3.12,2.32a1.5,1.5,0,0,0,1.72,2.46Z"/><path class="cls-1" d="M1417.45,210.1a1.86,1.86,0,0,0,1.45-2.2l-3.62.85A1.86,1.86,0,0,0,1417.45,210.1Z"/><path class="cls-1" d="M1174,28.91a1.51,1.51,0,0,0,1.33-1.67,11.41,11.41,0,0,1-.08-1.32c0-6.65,5.54-14.39,12.68-14.39a8.9,8.9,0,0,1,6.78,3.55,1.5,1.5,0,0,0,2.58-.47C1198.22,11.89,1201.74,3,1208,3c4.26,0,7.32,3.94,8.76,6.29a1.51,1.51,0,0,0,2.36.26,7.55,7.55,0,0,1,5.55-2.49c7.34,0,8.76,9.58,9,19.43-5-.1-9.52-.1-13.7-.1-15.73,0-28.74.51-40.93,1.51a1.5,1.5,0,0,0,.12,3h.13c12.11-1,25-1.5,40.68-1.5,4.59,0,9.57,0,15.21.13a1.55,1.55,0,0,0,1-.46,1.47,1.47,0,0,0,.44-1.08c-.1-7.77-.3-23.93-12-23.93a10.29,10.29,0,0,0-6.33,2.18C1215.45,2.2,1211.83,0,1208,0c-6.82,0-10.82,6.81-12.74,11.4a11.25,11.25,0,0,0-7.37-2.87c-9,0-15.68,9.18-15.68,17.39a14.93,14.93,0,0,0,.09,1.65A1.51,1.51,0,0,0,1174,28.91Z"/><path class="cls-1" d="M993.57,155.5q-.77,1.2-1.56,2.39a1.5,1.5,0,0,0,.33,2l.09.06h0a1.5,1.5,0,0,0,2.08-.42c.46-.69.91-1.38,1.36-2.08.86.75,1.56,1.31,1.86,1.54,1.6,1.23,3.26,2.41,4.86,3.55l.82.58a1.5,1.5,0,0,0,2.37-1.08c.3-2.91.65-5.89,1-8.76h0c.45-3.78.92-7.69,1.16-11.52a1.49,1.49,0,0,0-.56-1.27,1.43,1.43,0,0,0-1.36-.27l-2.56.74c-5.64,1.62-11.47,3.26-17.09,5.26a1.5,1.5,0,0,0-.51,2.53C988,150.64,991,153.33,993.57,155.5Zm10.76-11.67.48-.14c-.26,3.08-.64,6.23-1,9.23-.25,2-.5,4.15-.73,6.26-1.16-.83-2.34-1.69-3.47-2.56-.88-.67-5.91-5-9.78-8.4C994.62,146.63,999.55,145.21,1004.33,143.83Z"/><path class="cls-1" d="M1161.95,210.05a1.86,1.86,0,0,0,1.45-2.2l-3.62.85A1.86,1.86,0,0,0,1161.95,210.05Z"/><path class="cls-1" d="M964.87,185.12v0c1.27-.51,2.53-1.07,3.75-1.66a1.5,1.5,0,1,0-1.31-2.7c-1.16.59-2.36,1.1-3.57,1.59h-.08a1.5,1.5,0,0,0,1.21,2.75Z"/><path class="cls-1" d="M522.16,98.25c-1.17-.25-2.39-.46-3.63-.65h0a1.36,1.36,0,0,0-1.5,1.2,1.4,1.4,0,0,0,1.15,1.6c1.2.18,2.37.39,3.5.62h.27l0,0a1.37,1.37,0,0,0,1.33-1.14A1.41,1.41,0,0,0,522.16,98.25Z"/><path class="cls-1" d="M1671.92,111.72h0a1.32,1.32,0,0,0-1.84.31V112a1.45,1.45,0,0,0,.24,2l4.08-.24c-.81-.7-1.62-1.36-2.42-2Z"/><path class="cls-1" d="M1665.28,106.76c-1.05-.7-2.14-1.37-3.14-2h-.06a1.33,1.33,0,0,0-1.79.54,1.44,1.44,0,0,0,.49,1.93c1,.6,2,1.25,3,1.93a1.28,1.28,0,0,0,.73.23l0,0a1.34,1.34,0,0,0,1.14-.65h0A1.44,1.44,0,0,0,1665.28,106.76Z"/><path class="cls-1" d="M1654.63,100.91c-1.13-.49-2.29-1-3.46-1.37a1.34,1.34,0,0,0-1.67.89,1.42,1.42,0,0,0,.84,1.79c1.1.4,2.21.84,3.29,1.31a1.34,1.34,0,0,0,.53.11l-.05,0a1.36,1.36,0,0,0,1.25-.86A1.43,1.43,0,0,0,1654.63,100.91Z"/><path class="cls-1" d="M1828,196.43c-1.3-.07-2.63-.17-3.94-.29h0a1.5,1.5,0,0,0-1.06,2.68,1.53,1.53,0,0,0,.78.3c1.35.13,2.71.23,4.05.3a1.5,1.5,0,1,0,.17-3Z"/><path class="cls-1" d="M1643.18,97.25c-1.18-.25-2.4-.46-3.64-.65a1.37,1.37,0,0,0-1.52,1.2,1.4,1.4,0,0,0,1.15,1.6c1.19.18,2.37.39,3.49.62h.27l0,0a1.37,1.37,0,0,0,1.33-1.14A1.41,1.41,0,0,0,1643.18,97.25Z"/><path class="cls-1" d="M1839.69,71.94a1.5,1.5,0,0,0,1.47-1.41c.05-.54.05-1,.05-1.54,0-10.51-5.58-15.22-11.11-15.22a10.36,10.36,0,0,0-3.81.74c-2.53-7.64-8.29-11.64-13-11.64-8.76,0-14.32,11.14-17.06,17.71-3.1-4-7.05-6-9.76-6-6,0-11.69,12-12,16.78v.14a1.5,1.5,0,1,0,3,.06c.4-6,6.5-14,9.05-14,1.55,0,5.75,1.69,8.8,6.91a1.5,1.5,0,0,0,2.69-.21c3.13-7.91,8.12-18.43,15.33-18.43,3.8,0,8.81,3.9,10.62,11.14a1.52,1.52,0,0,0,.89,1,1.5,1.5,0,0,0,1.35-.11,7.62,7.62,0,0,1,4-1.15c3.74,0,8.11,3.2,8.11,12.2l-2.51.07a6.9,6.9,0,0,0,2.4-1.07v-.19a3.06,3.06,0,0,1-2.47,1,80.52,80.52,0,0,0-8.55.32h.89c.9,0,1.82.06,2.74.12-8.72.39-17.41,1.06-25.88,1.72-7.28.54-14.81,1.15-22.19,1.54a1.5,1.5,0,0,0,.08,3h.08c7.42-.39,15-1,22.26-1.54,11.31-.88,23-1.79,34.61-2Z"/><path class="cls-1" d="M1815.29,195c-1.29-.23-2.59-.48-3.88-.75l0,0a1.5,1.5,0,0,0-1.22,2.65,1.43,1.43,0,0,0,.6.28c1.34.28,2.68.54,4,.77h.12a1.51,1.51,0,1,0,.4-3Z"/><path class="cls-1" d="M1597.62,100.06a1.36,1.36,0,0,0-1.65-1c-1.18.33-2.37.69-3.54,1.07a1.42,1.42,0,0,0-.88,1.77,1.36,1.36,0,0,0,1.29,1,1.26,1.26,0,0,0,.41-.07l-.05,0c1.13-.34,2.28-.68,3.42-1a1.42,1.42,0,0,0,1-1.73Z"/><path class="cls-1" d="M1586.41,103.83a1.34,1.34,0,0,0-1.76-.69c-1.11.49-2.24,1-3.34,1.58a1.44,1.44,0,0,0-.64,1.88,1.36,1.36,0,0,0,1.23.8,1.31,1.31,0,0,0,.59-.14h0c1.07-.53,2.16-1,3.23-1.53a1.43,1.43,0,0,0,.71-1.85Z"/><path class="cls-1" d="M1631.34,95.76q-1.78-.14-3.66-.14a1.41,1.41,0,1,0-.06,2.82q1.83,0,3.57.14h.08a1.41,1.41,0,0,0,.07-2.82Z"/><path class="cls-1" d="M1619.47,95.59c-1.23,0-2.44.1-3.65.17a1.4,1.4,0,0,0-1.28,1.49,1.38,1.38,0,0,0,1.36,1.33h.08q1.77-.11,3.57-.17a1.41,1.41,0,0,0-.08-2.82Z"/><path class="cls-1" d="M1607.66,96.64c-1.22.17-2.44.37-3.63.58a1.4,1.4,0,0,0-1.1,1.63,1.36,1.36,0,0,0,1.33,1.17h.23v0c1.16-.21,2.34-.39,3.53-.56a1.4,1.4,0,0,0,1.16-1.58A1.37,1.37,0,0,0,1607.66,96.64Z"/><path class="cls-1" d="M1853.38,194.12c-1.25.32-2.54.61-3.83.87h0a1.49,1.49,0,0,0-1.16,1.76,1.45,1.45,0,0,0,.55.89,1.5,1.5,0,0,0,1.21.28h0c1.35-.26,2.69-.57,4-.91a1.5,1.5,0,0,0-.75-2.9Z"/><path class="cls-1" d="M1904,149.24l-2.56.74c-5.64,1.62-11.47,3.26-17.09,5.26a1.5,1.5,0,0,0-.51,2.53c2.09,1.88,5.17,4.57,7.7,6.74-.52.8-1,1.6-1.57,2.39a1.5,1.5,0,0,0,.34,2l.09.06h0a1.5,1.5,0,0,0,2.08-.42c.45-.69.91-1.38,1.36-2.08.86.75,1.56,1.31,1.86,1.54,1.6,1.23,3.26,2.41,4.86,3.55l.82.58a1.5,1.5,0,0,0,2.37-1.08c.3-2.91.65-5.89,1-8.76.45-3.78.92-7.69,1.17-11.51a1.52,1.52,0,0,0-.56-1.27A1.43,1.43,0,0,0,1904,149.24Zm-2.23,12.69c-.25,2-.5,4.15-.73,6.26-1.16-.83-2.34-1.69-3.47-2.56-.87-.67-5.91-5-9.78-8.4,4.8-1.59,9.73-3,14.51-4.39l.47-.14C1902.55,155.78,1902.17,158.93,1901.81,161.93Z"/><path class="cls-1" d="M1840.82,196.22c-1.29.11-2.62.19-3.93.24a1.5,1.5,0,0,0,.12,3v0c1.36-.06,2.73-.14,4.06-.26h.12a1.51,1.51,0,0,0-.37-3Z"/><path class="cls-1" d="M1575.88,109.22a1.34,1.34,0,0,0-1.84-.43c-1,.61-2.1,1.3-3.1,2h0a1.44,1.44,0,0,0-.39,2,1.34,1.34,0,0,0,1.14.64,1.32,1.32,0,0,0,.74-.23h0c1-.68,2-1.35,3-2a1.45,1.45,0,0,0,.46-1.94Z"/><path class="cls-1" d="M1865.32,189.72c-1.16.59-2.36,1.1-3.57,1.59l-.06,0a1.5,1.5,0,0,0-.77,2,1.58,1.58,0,0,0,.47.62,1.51,1.51,0,0,0,1.49.2v0c1.27-.52,2.53-1.08,3.75-1.66a1.5,1.5,0,0,0-1.31-2.7Z"/><path class="cls-1" d="M1876,183c-1,.81-2.06,1.59-3.13,2.32a1.5,1.5,0,0,0,1.71,2.47h0c1.12-.78,2.23-1.6,3.29-2.45l.12-.09a1.51,1.51,0,0,0-2-2.25Z"/><path class="cls-1" d="M1887,173.84l0,0a1.5,1.5,0,0,0-2.1.26c-.8,1-1.65,2-2.51,3a1.51,1.51,0,0,0,.11,2.12l.09.07a1.5,1.5,0,0,0,2-.18c.91-1,1.8-2.06,2.64-3.14A1.5,1.5,0,0,0,1887,173.84Z"/><path class="cls-1" d="M726.37,111.28q-1.68-.61-3.46-1.19a1.41,1.41,0,0,0-.87,2.68q1.74.57,3.38,1.17h.07v0a1.41,1.41,0,1,0,.88-2.68Z"/><path class="cls-1" d="M715,107.76q-1.78-.48-3.55-.89a1.41,1.41,0,0,0-.73,2.72h.08q1.73.41,3.47.87v0a1.41,1.41,0,0,0,.73-2.72Z"/><path class="cls-1" d="M681,106.06a1.34,1.34,0,0,0-1.49-1.17c-1.21.16-2.44.35-3.66.56a1.43,1.43,0,0,0-1.15,1.62,1.35,1.35,0,0,0,.94,1.12,1.3,1.3,0,0,0,.6,0v0c1.18-.21,2.37-.39,3.55-.54a1.43,1.43,0,0,0,1.21-1.57Z"/><path class="cls-1" d="M691.43,104.21h-3.69a1.42,1.42,0,0,0-1.36,1.44,1.36,1.36,0,0,0,1,1.32,1.3,1.3,0,0,0,.41,0h3.56a1.42,1.42,0,0,0,1.39-1.41h0A1.35,1.35,0,0,0,691.43,104.21Z"/><path class="cls-1" d="M703.37,105.29c-1.22-.19-2.44-.35-3.64-.49A1.4,1.4,0,0,0,698.2,106a1.37,1.37,0,0,0,.94,1.5h.23c1.16.14,2.35.3,3.53.48a1.4,1.4,0,0,0,1.59-1.14h0A1.37,1.37,0,0,0,703.37,105.29Z"/><path class="cls-1" d="M533.62,101.86c-1.13-.49-2.3-1-3.46-1.37a1.35,1.35,0,0,0-1.68.89,1.42,1.42,0,0,0,.84,1.79c1.11.4,2.22.84,3.3,1.31a1.3,1.3,0,0,0,.52.11l0,0a1.36,1.36,0,0,0,1.25-.86A1.43,1.43,0,0,0,533.62,101.86Z"/><path class="cls-1" d="M1566.15,116h0a1.32,1.32,0,0,0-1.86-.19c-.95.77-1.86,1.56-2.86,2.38a1.45,1.45,0,0,0-.17,2v.06a1.32,1.32,0,0,0,1.86.13h0c.93-.81,1.86-1.58,2.8-2.33a1.44,1.44,0,0,0,.24-2Z"/><path class="cls-1" d="M544.25,107.71c-1-.7-2.14-1.37-3.14-2h0a1.33,1.33,0,0,0-1.8.54,1.44,1.44,0,0,0,.49,1.93c1,.6,2,1.25,3,1.93a1.32,1.32,0,0,0,.74.23h0a1.35,1.35,0,0,0,1.14-.64h0A1.44,1.44,0,0,0,544.25,107.71Z"/><path class="cls-1" d="M669.33,108.21a1.33,1.33,0,0,0-1.63-.93c-1.18.32-2.37.67-3.56,1a1.44,1.44,0,0,0-.93,1.76,1.34,1.34,0,0,0,.9.93,1.31,1.31,0,0,0,.78,0l0,0c1.15-.35,2.32-.7,3.46-1a1.44,1.44,0,0,0,1-1.72Z"/><path class="cls-1" d="M549.07,113l-.06,0a1.45,1.45,0,0,0,.25,2l4.08-.24-2.42-2A1.33,1.33,0,0,0,549.07,113Z"/><path class="cls-1" d="M620.69,24.81a10.39,10.39,0,0,0-3.81.74c-2.53-7.64-8.29-11.64-13-11.64-8.76,0-14.31,11.14-17.06,17.71-3.1-4-7-6-9.76-6-6,0-11.68,12.05-12,16.78a1.5,1.5,0,0,0,3,.2c.36-6,6.45-14,9-14,1.55,0,5.8,1.69,8.8,6.91a1.5,1.5,0,0,0,2.69-.2c3.12-7.91,8.11-18.43,15.32-18.43,3.8,0,8.81,3.9,10.62,11.14a1.5,1.5,0,0,0,2.21.88,7.62,7.62,0,0,1,4-1.16c3.74,0,8.11,3.2,8.11,12.2L626.3,40a6.84,6.84,0,0,0,2.4-1.07v-.19a3.06,3.06,0,0,1-2.47,1,80.52,80.52,0,0,0-8.55.32h.89c.9,0,1.82.06,2.74.12-8.72.39-17.41,1.06-25.88,1.72-7.28.54-14.81,1.15-22.19,1.54a1.5,1.5,0,0,0,.08,3h.08c7.42-.39,15-1,22.26-1.54,11.31-.88,23-1.79,34.61-2a1.5,1.5,0,0,0,1.53-1.34V40C631.8,29.52,626.22,24.81,620.69,24.81Z"/><path class="cls-1" d="M737.21,116c-1-.57-2.16-1.14-3.29-1.67h0a1.36,1.36,0,0,0-1.79.71,1.4,1.4,0,0,0,.64,1.86c1.09.51,2.17,1,3.17,1.6l.23.09a1.37,1.37,0,0,0,1.58-.7A1.41,1.41,0,0,0,737.21,116Z"/><path class="cls-1" d="M658,111.9a1.33,1.33,0,0,0-1.73-.72q-1.7.69-3.42,1.46a1.45,1.45,0,0,0-.74,1.85v.07h0a1.32,1.32,0,0,0,1.75.66v0q1.68-.75,3.33-1.4A1.45,1.45,0,0,0,658,112Z"/><path class="cls-1" d="M1436.43,202.42c-.76.65-1.52,1.34-2.3,2-4.64,4.23-9.44,8.6-18.86,8.6-5.38,0-10.19-1.68-13.52-4.73a1.87,1.87,0,0,0-2.52,0,22.69,22.69,0,0,1-15.95,6.11,21.83,21.83,0,0,1-16.13-6.7,1.86,1.86,0,0,0-1.36-.6,2.11,2.11,0,0,0-1.37.59c-4.17,4.43-9.11,6.5-15.55,6.5-5.83,0-11.06-2.08-14.34-5.72a1.85,1.85,0,0,0-1.31-.61,1.92,1.92,0,0,0-1.36.51c-5.47,5.2-11,7.62-17.38,7.62a24,24,0,0,1-19.87-10.71,1.87,1.87,0,0,0-1.38-.83,1.9,1.9,0,0,0-1.52.55,28.15,28.15,0,0,1-21.14,8.94c-8.53,0-13.17-7.48-14.77-10.69a1.88,1.88,0,0,0-1.48-1,1.84,1.84,0,0,0-1.66.71c-3.08,3.94-7.34,7.94-15.34,7.94a19.94,19.94,0,0,1-16.14-8,1.86,1.86,0,0,0-2.84-.2,28.72,28.72,0,0,1-10.75,6.73l-3.83,1.15a33.32,33.32,0,0,1-7.61.9,28,28,0,0,1-9.47-1.58,1.86,1.86,0,0,0-2.75-2.46c-.76.65-1.52,1.34-2.3,2-4.64,4.23-12.44,3.6-21.86,3.6-5.38,0-10.19-1.68-13.52-4.73a1.87,1.87,0,0,0-2.52,0,22.69,22.69,0,0,1-15.95,6.11,21.83,21.83,0,0,1-16.13-6.7,1.86,1.86,0,0,0-1.36-.6,2.11,2.11,0,0,0-1.37.59c-4.17,4.43-9.11,6.5-15.55,6.5-5.83,0-11.06-2.08-14.34-5.72a1.85,1.85,0,0,0-1.31-.61,1.92,1.92,0,0,0-1.36.51c-5.47,5.2-11,7.62-17.38,7.62a24,24,0,0,1-19.87-10.71,1.87,1.87,0,0,0-1.38-.83,1.9,1.9,0,0,0-1.52.55,28.15,28.15,0,0,1-21.14,8.94c-8.53,0-13.17-7.48-14.77-10.69a1.88,1.88,0,0,0-1.48-1,1.84,1.84,0,0,0-1.66.71c-3.07,3.94-7.34,7.94-15.34,7.94a19.92,19.92,0,0,1-16.13-8,1.87,1.87,0,0,0-2.85-.2,28.67,28.67,0,0,1-10.75,6.73l-3.82,1.15a33.33,33.33,0,0,1-7.61.9,27.19,27.19,0,0,1-10.7-2.07,1.86,1.86,0,1,0-1.47,3.42,30.92,30.92,0,0,0,12.24,2.41,35.62,35.62,0,0,0,23.34-8.46,23.79,23.79,0,0,0,17.82,7.9,21.1,21.1,0,0,0,16.49-7.26c4.08,6.6,10.07,10.32,16.76,10.32a32,32,0,0,0,22.23-8.53A27.77,27.77,0,0,0,1059,219.91c6.77,0,12.87-2.42,18.61-7.42a23.44,23.44,0,0,0,15.78,5.63,23.83,23.83,0,0,0,16.91-6.32,25.85,25.85,0,0,0,17.5,6.53,26.18,26.18,0,0,0,17.23-6,24.1,24.1,0,0,0,14.76,4.64c10.51,0,19.1-.29,23.89-4.16a2.11,2.11,0,0,0,.31.17,30.91,30.91,0,0,0,12.18,2.38,35.64,35.64,0,0,0,23.35-8.46,23.77,23.77,0,0,0,17.82,7.9,21.1,21.1,0,0,0,16.49-7.26c4.08,6.6,10.07,10.32,16.76,10.32a32,32,0,0,0,22.23-8.53,27.77,27.77,0,0,0,21.68,10.58c6.77,0,12.87-2.42,18.61-7.42a23.44,23.44,0,0,0,15.78,5.63,23.83,23.83,0,0,0,16.91-6.32,25.85,25.85,0,0,0,17.5,6.53,26.18,26.18,0,0,0,17.23-6,24.1,24.1,0,0,0,14.76,4.64c10.87,0,16.69-5.31,21.37-9.57v0a19.59,19.59,0,0,0,2.15-2.12,1.86,1.86,0,0,0-2.43-2.82Z"/><path class="cls-1" d="M1449.62,141.22c-1.1.78-2.2,1.6-3.27,2.45a1.47,1.47,0,0,0-.49.7,1.5,1.5,0,0,0,2.35,1.65h0c1-.81,2.08-1.6,3.14-2.35l.08-.06a1.5,1.5,0,0,0-1.81-2.39Z"/><path class="cls-1" d="M1461.21,134.6c-1.24.54-2.49,1.13-3.71,1.76a1.5,1.5,0,0,0-.73.86,1.53,1.53,0,0,0,.09,1.16,1.5,1.5,0,0,0,2,.64c1.16-.55,2.35-1.12,3.55-1.67a1.5,1.5,0,0,0-1.2-2.75Z"/><path class="cls-1" d="M1473.9,130.73c-1.33.24-2.68.54-4,.88a1.5,1.5,0,0,0-1.05,1,1.44,1.44,0,0,0,0,.85,1.5,1.5,0,0,0,1.83,1.07h0c1.25-.32,2.53-.6,3.82-.86h0a1.5,1.5,0,1,0-.62-2.94Z"/><path class="cls-1" d="M1495.45,128a1,1,0,0,0-.07-.15,7.11,7.11,0,0,0-4.73-4.33c-3.39-1.13-6.62-.08-8.24,2.5a7.85,7.85,0,0,0-1.55,2.74c-1.52,4.55.3,8.69,4.43,10.07h0c4.21,1.4,8.52-1,10-5.57a8.49,8.49,0,0,0,.25-4.78A1.27,1.27,0,0,0,1495.45,128Zm-3,4.29c-.84,2.51-3.31,4.66-6.24,3.66a4,4,0,0,1-2.89-3.43h.16a1.5,1.5,0,0,0,1.14-1.79,4.38,4.38,0,0,1-.08-2.34,4.51,4.51,0,0,1,.24-.56,5.16,5.16,0,0,1,5.14-.93,4.58,4.58,0,0,1,2.58,2h0A5.59,5.59,0,0,1,1492.49,132.3Z"/><path class="cls-1" d="M911.77,72.91a1.5,1.5,0,0,0,1.48-1.43V69.94c0-10.51-5.58-15.22-11.11-15.22a10.39,10.39,0,0,0-3.81.74c-2.53-7.64-8.29-11.64-13-11.64-8.76,0-14.31,11.14-17.06,17.71-3.1-4-7-6-9.76-6-6,0-11.68,12-12,16.78a1.5,1.5,0,0,0,3,.2c.36-6,6.46-14,9-14,1.55,0,5.8,1.69,8.8,6.91a1.5,1.5,0,0,0,2.69-.2c3.12-7.91,8.11-18.43,15.32-18.43,3.8,0,8.81,3.9,10.62,11.14a1.5,1.5,0,0,0,2.24.91,7.62,7.62,0,0,1,4-1.15c3.74,0,8.11,3.2,8.11,12.2l-2.51.07a6.84,6.84,0,0,0,2.4-1.07V68.7a3.06,3.06,0,0,1-2.47,1,80.52,80.52,0,0,0-8.55.32H900c.9,0,1.82.06,2.74.12-8.72.39-17.41,1.06-25.88,1.72-7.28.54-14.81,1.15-22.19,1.54a1.5,1.5,0,0,0,.08,3h.08c7.42-.39,15-1,22.26-1.54,11.31-.88,23-1.79,34.61-2Z"/><path class="cls-1" d="M929.84,190.37a1.5,1.5,0,0,0,.17-3c-1.29-.07-2.62-.17-3.93-.29H926a1.5,1.5,0,0,0-.17,3c1.35.13,2.71.23,4,.3Z"/><path class="cls-1" d="M753.16,128.59a1.33,1.33,0,0,0-1.88,0,1.44,1.44,0,0,0-.08,2c.78.86,1.57,1.78,2.34,2.72a1.32,1.32,0,0,0,.64.43l0,0a1.34,1.34,0,0,0,1.21-.37,1.44,1.44,0,0,0,.18-2C754.79,130.43,754,129.49,753.16,128.59Z"/><path class="cls-1" d="M760.61,138.1h0a1.32,1.32,0,0,0-1.85-.23v0a1.45,1.45,0,0,0-.4,1.92l4,.94q-.88-1.34-1.75-2.6Z"/><path class="cls-1" d="M917.25,185.91c-1.29-.23-2.6-.48-3.88-.75l-.17,0a1.5,1.5,0,0,0-.45,3c1.34.28,2.68.54,4,.77l0,0h.09a1.52,1.52,0,1,0,.43-3Z"/><path class="cls-1" d="M744.29,120.46h0a1.34,1.34,0,0,0-1.86.37h0a1.42,1.42,0,0,0,.3,2c.94.7,1.88,1.44,2.78,2.2a1.29,1.29,0,0,0,.43.24v0a1.36,1.36,0,0,0,1.44-.47,1.43,1.43,0,0,0-.16-2C746.29,122,745.29,121.19,744.29,120.46Z"/><rect class="cls-2" x="1656.82" y="164.54" width="65.67" height="6.55" rx="3.27" ry="3.27"/><rect class="cls-3" x="1656.87" y="204.12" width="64.91" height="6.55" rx="3.27" ry="3.27"/><rect class="cls-4" x="1723.11" y="177.65" width="12.73" height="6.55" rx="3.27" ry="3.27"/><rect class="cls-5" x="1680.42" y="184.33" width="25.64" height="6.55" rx="3.27" ry="3.27" transform="translate(363.28 1252.25) rotate(-45)"/><rect class="cls-6" x="1679.83" y="183.18" width="6.55" height="15.8" rx="3.27" ry="3.27" transform="translate(357.85 1246.1) rotate(-45)"/><rect class="cls-7" x="1716" y="164.55" width="6.55" height="46.12" rx="3.27" ry="3.27"/><rect class="cls-8" x="1723.11" y="204.12" width="26.33" height="6.55" rx="3.27" ry="3.27"/><rect class="cls-9" x="1735.99" y="175" width="6.55" height="24.64" rx="3.27" ry="3.27" transform="translate(408.13 1322.32) rotate(-46.6)"/><path class="cls-10" d="M1660,178.64h0a3.13,3.13,0,0,1,3.13,3.13v25.77a3.13,3.13,0,0,1-3.13,3.13h0a3.13,3.13,0,0,1-3.13-3.13V181.77A3.13,3.13,0,0,1,1660,178.64Z"/><path class="cls-11" d="M1746.32,190.62h0a3.13,3.13,0,0,1,3.13,3.13v6.73a3.13,3.13,0,0,1-3.13,3.13h0a3.13,3.13,0,0,1-3.13-3.13v-6.73A3.13,3.13,0,0,1,1746.32,190.62Z"/><path class="cls-12" d="M1672.61,204.12h0a3.13,3.13,0,0,1,3.13,3.13v7.22a3.13,3.13,0,0,1-3.13,3.13h0a3.13,3.13,0,0,1-3.13-3.13v-7.22A3.13,3.13,0,0,1,1672.61,204.12Z"/><path class="cls-13" d="M1733.15,204.12h0a3.13,3.13,0,0,1,3.13,3.13v7.22a3.13,3.13,0,0,1-3.13,3.13h0a3.13,3.13,0,0,1-3.13-3.13v-7.22A3.13,3.13,0,0,1,1733.15,204.12Z"/><path class="cls-14" d="M1560.55,216.41l12.86-12.86a3.89,3.89,0,0,1,5.5,0h0a3.89,3.89,0,0,1,0,5.5l-12.86,12.86a3.89,3.89,0,0,1-5.5,0h0A3.89,3.89,0,0,1,1560.55,216.41Z"/><rect class="cls-15" x="1526.29" y="169.82" width="40.45" height="6.46" rx="3.23" ry="3.23"/><path class="cls-16" d="M1517.1,169.82h0a3.18,3.18,0,0,1,3.18,3.18v46.8a3.18,3.18,0,0,1-3.18,3.18h0a3.18,3.18,0,0,1-3.18-3.18V173A3.18,3.18,0,0,1,1517.1,169.82Z"/><rect class="cls-17" x="1513.93" y="216.52" width="52.81" height="6.46" rx="3.23" ry="3.23"/><path class="cls-18" d="M1563.55,170.32h0a3.18,3.18,0,0,1,3.18,3.18v46.29a3.18,3.18,0,0,1-3.18,3.18h0a3.18,3.18,0,0,1-3.18-3.18V173.5A3.18,3.18,0,0,1,1563.55,170.32Z"/><path class="cls-19" d="M1576.82,169.82h0A3.18,3.18,0,0,1,1580,173v33.43a3.18,3.18,0,0,1-3.18,3.18h0a3.18,3.18,0,0,1-3.18-3.18V173A3.18,3.18,0,0,1,1576.82,169.82Z"/><rect class="cls-20" x="1511.32" y="163.1" width="24.61" height="6.8" rx="3.4" ry="3.4" transform="translate(328.53 1126.13) rotate(-45)"/><rect class="cls-21" x="1556.6" y="163.67" width="26.24" height="6.8" rx="3.4" ry="3.4" transform="translate(341.62 1158.89) rotate(-45)"/><rect class="cls-22" x="1526.74" y="156.81" width="53.21" height="6.46" rx="3.23" ry="3.23"/><path class="cls-23" d="M1540.65,194.55h0a3.18,3.18,0,0,1,3.18,3.18v8.41a3.18,3.18,0,0,1-3.18,3.18h0a3.18,3.18,0,0,1-3.18-3.18v-8.41A3.18,3.18,0,0,1,1540.65,194.55Z"/><rect class="cls-24" x="1541.18" y="183.32" width="6.8" height="17.28" rx="3.4" ry="3.4" transform="translate(316.66 1148.4) rotate(-45)"/><rect class="cls-25" x="1528.7" y="188.31" width="16.57" height="6.8" rx="3.4" ry="3.4" transform="translate(314.61 1142.96) rotate(-45)"/><rect class="cls-26" x="1061.34" y="164.74" width="7.61" height="39" rx="3.39" ry="3.39" transform="translate(181.69 807.13) rotate(-45)"/><rect class="cls-27" x="1132.15" y="183.77" width="29.77" height="7.61" rx="3.39" ry="3.39" transform="translate(203.33 866.02) rotate(-45)"/><rect class="cls-28" x="1072.3" y="191.6" width="70.8" height="7.61" rx="3.39" ry="3.39"/><rect class="cls-29" x="1066.13" y="145.44" width="38.7" height="7.93" rx="3.53" ry="3.53"/><rect class="cls-30" x="1050.24" y="169.35" width="23.13" height="7.93" rx="3.53" ry="3.53"/><rect class="cls-31" x="1097.59" y="169.35" width="54.56" height="7.93" rx="3.53" ry="3.53"/><rect class="cls-32" x="1113.77" y="153.37" width="38.38" height="7.93" rx="3.53" ry="3.53"/><rect class="cls-33" x="1097.59" y="145.6" width="7.24" height="31.68" rx="3.22" ry="3.22"/><rect class="cls-34" x="1113.77" y="153.37" width="7.24" height="23.87" rx="3.22" ry="3.22"/><rect class="cls-35" x="1144.9" y="153.37" width="7.24" height="23.87" rx="3.22" ry="3.22"/><rect class="cls-36" x="1081.7" y="129.89" width="7.24" height="23.47" rx="3.22" ry="3.22"/><rect class="cls-37" x="1066.13" y="145.44" width="7.24" height="31.8" rx="3.22" ry="3.22"/><rect class="cls-38" x="808.64" y="130.88" width="71.29" height="8.49" rx="4.24" ry="4.24"/><rect class="cls-39" x="801.66" y="147.13" width="49.48" height="8.49" rx="4.24" ry="4.24"/><path class="cls-40" d="M885.16,146.29h0a4.5,4.5,0,0,0,.25-5.73l-6.59-8.35a3.24,3.24,0,0,0-5-.29h0a4.5,4.5,0,0,0-.25,5.73l6.59,8.35a3.24,3.24,0,0,0,5,.29Z"/><path class="cls-41" d="M814.56,138.36h0a4.5,4.5,0,0,0,.25-5.73l-7-8.85a3.24,3.24,0,0,0-5-.29h0a4.5,4.5,0,0,0-.25,5.73l7,8.85a3.24,3.24,0,0,0,5,.29Z"/><path class="cls-42" d="M855.41,129.8h0a4.5,4.5,0,0,0,.25-5.73l-19.8-25a3.24,3.24,0,0,0-5-.29h0a4.5,4.5,0,0,0-.25,5.73l19.8,25.08a3.24,3.24,0,0,0,5,.26Z"/><rect class="cls-43" x="829.7" y="97.66" width="7.08" height="41.71" rx="3.54" ry="3.54"/><path class="cls-44" d="M863.91,148.38h0a4.5,4.5,0,0,1,0,5.74l-28.17,32.3a3.24,3.24,0,0,1-5,0h0a4.5,4.5,0,0,1,0-5.74l28.17-32.3a3.24,3.24,0,0,1,5,0Z"/><rect class="cls-45" x="829.7" y="155.62" width="7.08" height="31.98" rx="3.54" ry="3.54"/><rect class="cls-46" x="858.07" y="147.13" width="22.87" height="8.49" rx="4.24" ry="4.24"/><rect class="cls-47" x="432" y="143.94" width="55.15" height="7.69" rx="3.84" ry="3.84"/><rect class="cls-48" x="416.17" y="203.89" width="92.73" height="7.69" rx="3.84" ry="3.84"/><path class="cls-49" d="M435.82,143.94h0a3.82,3.82,0,0,1,3.82,3.82v43.6a3.82,3.82,0,0,1-3.82,3.82h0a3.82,3.82,0,0,1-3.82-3.82v-43.6A3.82,3.82,0,0,1,435.82,143.94Z"/><path class="cls-50" d="M417.42,210.63h0a3.59,3.59,0,0,1-.38-5.06l.11-.13,15.75-16.73a3.94,3.94,0,0,1,5.4-.26h0a3.59,3.59,0,0,1,.38,5.06l-.11.13-15.75,16.73A3.94,3.94,0,0,1,417.42,210.63Z"/><rect class="cls-51" x="447.93" y="188.76" width="46.23" height="7.69" rx="3.84" ry="3.84"/><path class="cls-52" d="M490.34,151.63h0a3.82,3.82,0,0,1,3.82,3.82v37.18a3.82,3.82,0,0,1-3.82,3.82h0a3.82,3.82,0,0,1-3.82-3.82V155.45A3.82,3.82,0,0,1,490.34,151.63Z"/><path class="cls-53" d="M507.49,210.6l.18-.16a3.58,3.58,0,0,0,.33-5.05l-.13-.14-15.8-16.36a3.94,3.94,0,0,0-5.4-.19l-.18.16a3.58,3.58,0,0,0-.33,5.05l.13.14,15.8,16.36A3.94,3.94,0,0,0,507.49,210.6Z"/><path class="cls-54" d="M478.22,164.87l-16.49,15.86a4.12,4.12,0,0,1-5.65,0h0a3.75,3.75,0,0,1-.14-5.3l.14-.14,16.49-15.86a4.12,4.12,0,0,1,5.65,0h0a3.75,3.75,0,0,1,.14,5.3Z"/><path class="cls-55" d="M453.6,167.61l8,7.69a3.75,3.75,0,0,1,.14,5.3l-.14.14h0a4.12,4.12,0,0,1-5.65,0l-8-7.69a3.75,3.75,0,0,1-.14-5.3l.14-.14h0A4.12,4.12,0,0,1,453.6,167.61Z"/><rect class="cls-56" x="588.46" y="158.34" width="75.94" height="7.57" rx="3.15" ry="3.15"/><rect class="cls-57" x="588.52" y="204.11" width="75.06" height="7.57" rx="3.15" ry="3.15"/><rect class="cls-58" x="665.13" y="173.5" width="14.73" height="7.57" rx="3.15" ry="3.15"/><rect class="cls-59" x="615.75" y="181.23" width="29.66" height="7.57" rx="3.15" ry="3.15" transform="translate(53.86 500.08) rotate(-45)"/><rect class="cls-60" x="615.08" y="179.9" width="7.57" height="18.27" rx="3.15" ry="3.15" transform="translate(47.59 492.97) rotate(-45)"/><rect class="cls-61" x="656.92" y="158.35" width="7.57" height="53.33" rx="3.15" ry="3.15"/><rect class="cls-62" x="665.13" y="204.11" width="30.45" height="7.57" rx="3.15" ry="3.15"/><rect class="cls-63" x="680.07" y="170.38" width="7.57" height="28.49" rx="3.15" ry="3.15" transform="translate(79.84 554.64) rotate(-46.6)"/><rect class="cls-64" x="588.52" y="174.64" width="7.24" height="37.04" rx="3.01" ry="3.01"/><rect class="cls-65" x="688.34" y="188.5" width="7.24" height="15.03" rx="3.01" ry="3.01"/><rect class="cls-66" x="603.1" y="204.11" width="7.24" height="15.59" rx="3.01" ry="3.01"/><rect class="cls-67" x="673.12" y="204.11" width="7.24" height="15.59" rx="3.01" ry="3.01"/><rect class="cls-68" x="159.36" y="163.52" width="7.61" height="39" rx="3.39" ry="3.39" transform="translate(-81.63 168.98) rotate(-45)"/><rect class="cls-69" x="230.18" y="182.55" width="29.77" height="7.61" rx="3.39" ry="3.39" transform="translate(-59.99 227.87) rotate(-45)"/><rect class="cls-70" x="170.34" y="190.37" width="70.8" height="7.61" rx="3.39" ry="3.39"/><rect class="cls-71" x="164.16" y="144.21" width="38.7" height="7.93" rx="3.53" ry="3.53"/><rect class="cls-72" x="148.28" y="168.12" width="23.13" height="7.93" rx="3.53" ry="3.53"/><rect class="cls-73" x="195.62" y="168.12" width="54.56" height="7.93" rx="3.53" ry="3.53"/><rect class="cls-74" x="211.8" y="152.14" width="38.38" height="7.93" rx="3.53" ry="3.53"/><rect class="cls-75" x="195.62" y="144.37" width="7.24" height="31.68" rx="3.22" ry="3.22"/><rect class="cls-76" x="211.8" y="152.14" width="7.24" height="23.87" rx="3.22" ry="3.22"/><rect class="cls-77" x="242.94" y="152.14" width="7.24" height="23.87" rx="3.22" ry="3.22"/><rect class="cls-78" x="179.73" y="128.67" width="7.24" height="23.47" rx="3.22" ry="3.22"/><rect class="cls-79" x="164.16" y="144.21" width="7.24" height="31.8" rx="3.22" ry="3.22"/><path class="cls-80" d="M46.63,214.73l12.86-12.86a3.89,3.89,0,0,1,5.5,0h0a3.89,3.89,0,0,1,0,5.5L52.13,220.23a3.89,3.89,0,0,1-5.5,0h0A3.89,3.89,0,0,1,46.63,214.73Z"/><rect class="cls-81" x="12.36" y="168.14" width="40.45" height="6.46" rx="3.23" ry="3.23"/><path class="cls-82" d="M3.18,168.14h0a3.18,3.18,0,0,1,3.18,3.18v46.8a3.18,3.18,0,0,1-3.18,3.18h0A3.18,3.18,0,0,1,0,218.12v-46.8A3.18,3.18,0,0,1,3.18,168.14Z"/><rect class="cls-83" x="0.01" y="214.85" width="52.81" height="6.46" rx="3.23" ry="3.23"/><path class="cls-84" d="M49.63,168.65h0a3.18,3.18,0,0,1,3.17,3.18v46.29a3.18,3.18,0,0,1-3.17,3.18h0a3.18,3.18,0,0,1-3.17-3.18V171.83A3.18,3.18,0,0,1,49.63,168.65Z"/><path class="cls-85" d="M62.89,168.14h0a3.18,3.18,0,0,1,3.18,3.18v33.43a3.18,3.18,0,0,1-3.18,3.18h0a3.18,3.18,0,0,1-3.17-3.18V171.32A3.18,3.18,0,0,1,62.89,168.14Z"/><rect class="cls-86" x="-2.61" y="161.41" width="24.61" height="6.8" rx="3.4" ry="3.4" transform="translate(-113.7 55.13) rotate(-45)"/><rect class="cls-87" x="42.69" y="162" width="26.24" height="6.8" rx="3.4" ry="3.4" transform="translate(-100.61 87.91) rotate(-45)"/><rect class="cls-88" x="12.81" y="155.13" width="53.21" height="6.46" rx="3.23" ry="3.23"/><path class="cls-89" d="M26.73,192.88h0a3.18,3.18,0,0,1,3.17,3.18v8.41a3.18,3.18,0,0,1-3.17,3.18h0a3.18,3.18,0,0,1-3.17-3.18v-8.41A3.18,3.18,0,0,1,26.73,192.88Z"/><rect class="cls-90" x="27.26" y="181.64" width="6.8" height="17.28" rx="3.4" ry="3.4" transform="translate(-125.57 77.42) rotate(-45)"/><rect class="cls-91" x="14.78" y="186.64" width="16.57" height="6.8" rx="3.4" ry="3.4" transform="translate(-127.62 71.97) rotate(-45)"/></g></g></g></svg>